<?xml version="1.0" encoding="utf-8"?>
<!-- Generator: Adobe Illustrator 25.2.3, SVG Export Plug-In . SVG Version: 6.00 Build 0)  -->
<svg version="1.1" id="Layer_1" xmlns="http://www.w3.org/2000/svg" xmlns:xlink="http://www.w3.org/1999/xlink" x="0px" y="0px"
	 viewBox="0 0 595.28 841.89" style="enable-background:new 0 0 595.28 841.89;" xml:space="preserve">
<style type="text/css">
	.st0{fill:#004B3E;}
</style>
<g>
	<path class="st0" d="M479.11,370.28c-1.22,0.01-2.45,0.02-3.7,0.02c-44.3,0-66.52-6.51-88.01-12.8
		c-21.71-6.36-44.16-12.93-89.08-12.93c-44.75,0-67.8,6.54-90.1,12.86c-22.33,6.33-45.42,12.88-90.56,12.88
		c-0.5,0-0.99-0.01-1.48-0.01v2c0.5,0,0.98,0.01,1.48,0.01c45.42,0,68.65-6.58,91.11-12.95c22.17-6.28,45.09-12.78,89.56-12.78
		c44.63,0,66.94,6.53,88.51,12.85c21.63,6.33,43.99,12.88,88.58,12.88c1.25,0,2.48-0.01,3.7-0.02V370.28z"/>
	<path class="st0" d="M208.76,349.34c22.17-6.28,45.09-12.78,89.56-12.78c44.63,0,66.94,6.53,88.51,12.85
		c21.63,6.33,43.99,12.88,88.58,12.88c1.25,0,2.48-0.01,3.7-0.02v-2c-1.22,0.01-2.45,0.02-3.7,0.02c-44.3,0-66.52-6.51-88.01-12.8
		c-21.71-6.36-44.16-12.93-89.08-12.93c-44.75,0-67.8,6.54-90.1,12.86c-22.33,6.33-45.42,12.88-90.56,12.88
		c-0.5,0-0.99-0.01-1.48-0.01v2c0.5,0,0.98,0.01,1.48,0.01C163.07,362.29,186.3,355.71,208.76,349.34z"/>
</g>
</svg>
