<?xml version="1.0" encoding="utf-8"?>
<!-- Generator: Adobe Illustrator 25.2.3, SVG Export Plug-In . SVG Version: 6.00 Build 0)  -->
<svg version="1.1" id="Layer_1" xmlns="http://www.w3.org/2000/svg" xmlns:xlink="http://www.w3.org/1999/xlink" x="0px" y="0px"
	 viewBox="0 0 595.28 841.89" style="enable-background:new 0 0 595.28 841.89;" xml:space="preserve">
<style type="text/css">
	.st0{stroke:#231F20;stroke-width:4;stroke-linejoin:round;stroke-miterlimit:10;}
	.st1{fill:#FFFFFF;stroke:#231F20;stroke-width:4;stroke-linejoin:round;stroke-miterlimit:10;}
	.st2{fill:#FFFFFF;}
</style>
<g>
	<path class="st0" d="M251.86,531.27c-0.39,0-0.84,0.67-1.51,1.29c-4.76,4.82-9.75,9.41-27.8,9.41c-22.02,0-45.45-9.13-71.23-9.53
		c-1.12,0-2.24,0-3.31,0c0.45-3.42,0.67-6.95,0.67-10.65c0-6.44-0.67-13.56-1.34-22.19c2.58-1.68,4.15-3.31,4.15-3.31
		c8.63-8.13,13.28-21.07,13.28-34.02c0-11.94-5.04-21.35-13.34-21.35c-13.23,0-15.69,22.47-15.69,41.81c0,4.93,0.5,10.87,1.01,17.09
		c-0.45,0-0.9,0.06-1.34,0.06c-9.98-0.67-14.63-8.85-15.52-18.44c-1.51-16.48,5.21-23.37,10.09-25.55c0,0-1.74-3.19-6.16-3.19
		c-8.41,0-13.06,9.92-13.06,21.07c0,15.07,7.57,28.36,21.69,29.7c1.01,0.11,1.96,0.11,2.91,0.06c0.62,0,1.18-0.06,1.74-0.11
		c0.73,7.68,1.4,15.47,1.4,22.19c0,2.8-0.11,5.38-0.22,7.79c-16.48,3.08-23.14,12.66-23.2,21.41c-0.06,5.88,3.75,9.19,9.13,9.25
		c11.49,0.11,19.33-10.09,22.7-24.99c0.39,0,0.78,0,1.12,0c20.62,0.34,43.37,12.05,68.54,12.05c21.63,0,31.27-9.25,35.53-18.33
		C252.36,532,252.36,531.27,251.86,531.27 M146.28,473.11c0-39.84,9.58-32.11,9.58-14.18c0,21.18-3.87,31.49-8.8,36.48
		C146.61,488.96,146.28,481.62,146.28,473.11 M124.31,560.08c-3.19,0-5.32-2.07-5.32-5.32c0-6.89,6.89-12.83,18.61-14.91
		C135.52,553.92,130.36,560.08,124.31,560.08"/>
	<path class="st0" d="M355.7,469.13c0-6.5-1.79-13.17-8.35-13.17c-5.16,0-12.55,3.31-17.48,25.72c0.17-5.38,0.39-11.21,0.39-15.24
		c0-6.44-1.23-9.19-5.27-9.19c-3.03,0-6.33,1.51-6.33,1.91c-0.17,3.42-3.36,14.12-8.57,22.47c-0.11-16.31-4.37-27.07-15.69-27.07
		l0,0l0,0l0,0c-12.95,0-18.44,13.9-18.44,37.49c0,17.26,3.92,27.74,15.8,27.74l0,0l0,0l0,0l0,0c11.1,0,17.43-10.93,18.27-32.56
		c6.05-7.34,9.69-17.6,10.7-23.87c0.5,2.97,0.78,8.13,0.62,17.2c-0.17,8.91-1.34,20.06-1.34,33.68c0,3.47,0.67,4.99,3.75,4.99
		c4.03,0,7.34-1.29,7.34-2.02c0-0.34-1.18-1.57-1.18-9.58c0-22.19,8.01-45.34,13.45-45.34c2.02,0,2.41,2.75,2.41,8.24
		c0,6.67-2.13,22.7-2.13,37.43c0,9.81,1.34,11.88,6,11.88c3.19,0,6.61-1.68,6.61-2.75c0-0.78-2.63-1.12-2.63-8.91
		C353.57,490.81,355.7,478.99,355.7,469.13 M294.17,458.03c4.32,0,5.55,8.85,5.55,22.98c0,3.87-0.06,7.34-0.17,10.48
		c-1.4,0.62-2.86,0.95-4.37,0.95c-6.89,0-8.63-8.01-8.63-14.85C286.54,466.83,289.51,458.03,294.17,458.03 M291.92,516.26
		c-4.88,0-6.5-8.18-6.5-22.02c0-1.01,0-2.3,0.17-3.19c1.79,2.8,4.71,4.82,8.63,4.82c1.79,0,3.47-0.28,5.1-0.84
		C298.42,510.43,295.79,516.26,291.92,516.26"/>
	<path class="st0" d="M199.74,316.75c0,5.44,3.92,14.57,5.83,14.57c0.56,0,0.95-0.28,1.12-1.29c1.01-6.89,3.92-18.04,11.54-22.75
		c0.39-0.22,1.46-0.84,1.46-1.4c0-0.67-1.68-1.96-5.6-1.96C204.39,303.92,199.74,308.74,199.74,316.75"/>
	<path class="st0" d="M205.4,415.22c3.98,0,8.69-1.74,8.69-3.03c0-0.5-2.52-1.06-2.52-20.79c0-18.83,1.79-38.84,1.79-46.29
		c0-7.62-1.79-9.02-5.94-9.02c-5.66,0-10.09,2.07-10.09,2.58c0,0.67,2.07,0.56,2.07,20.85c0,9.92-0.95,33.29-1.18,40.91
		C198.28,413.65,199.51,415.22,205.4,415.22"/>
	<path class="st0" d="M146.89,431.75c24.21,0,40.97-16.31,40.97-39.9c0-19.5-14.18-29.7-28.24-38.44
		c-19.05-11.82-25.95-17.65-25.95-30.15c0-16.03,13.79-26.06,24.94-26.06c6.22,0,11.88,2.58,15.07,7.17
		c-7.96,9.41-13.56,20.57-13.56,29.93c0,6.95,3.98,9.47,7.9,9.47c9.64,0,21.18-13.79,21.18-29.08c0-5.55-1.57-10.48-4.43-14.46
		c7.4-5.55,15.8-8.52,24.1-8.52c3.36,0,6,0.62,6.84,0.62c0.39,0,0.56-0.22,0.56-1.01c0-4.48-3.87-7.45-8.69-7.45
		c-8.29,0-17.93,5.16-26.34,12.61c-4.03-3.42-9.53-5.38-16.08-5.38c-21.69,0-39.84,15.47-39.84,38.22
		c0,20.9,13.34,29.65,26.84,38.11c13.23,8.29,25.78,16.98,25.78,32.73c0,15.52-11.66,26.23-26.23,26.23
		c-13.51,0-21.35-8.07-21.74-19.11c-0.5-15.3,10.31-24.77,20.79-24.77c0.39,0,0.95,0.06,1.23,0.06c0.17,0,0.22-0.11,0.22-0.22
		c0-2.41-3.75-5.16-9.36-5.16c-12.95,0-26.39,9.58-26.39,26.96C116.57,422.5,131.48,431.75,146.89,431.75 M176.99,316.59
		c0,12.38-4.03,22.92-8.97,22.92c-1.91,0-3.59-1.12-3.59-4.65c0-8.52,4.6-17.93,11.49-25.78
		C176.59,311.26,176.99,313.73,176.99,316.59"/>
	<path class="st0" d="M467.72,432.76c8.8,6.33,15.13,15.8,16.92,24.71c0.06,0.22,0.22,0.28,0.5,0.22c2.75-0.06,5.27-2.47,5.27-6.95
		c0-7.57-8.91-16.25-21.01-22.25c2.47-7.29,3.7-15.92,3.7-25.5c0-5.72-1.51-30.15-1.51-34.74c0-18.61,0.39-24.32,1.34-27.57
		c0-1.01-6.61-3.87-9.86-3.87c-4.32,0-4.88,2.3-4.88,7c0.34,20.96-8.01,60.35-17.48,60.35c-1.23,0-3.03-0.84-3.03-5.27
		c0-7.34,0.28-32.95,0.28-45.9c0-11.94-1.34-17.26-9.25-17.26c-4.88,0-7.9,1.74-7.9,2.47c0,0.11,0.06,0.17,0.11,0.28
		c6.5,14.68-3.42,65.01-13,65.01c-2.75,0-4.48-2.52-4.48-15.19c0-34.41,4.65-59.46,4.65-83.72c0-11.77-2.58-13.06-8.46-13.06
		c-4.54,0-8.29,2.02-8.29,2.52c0,0.95,2.97,1.85,2.97,18.89c0,7.06-0.34,14.12-0.78,21.13c-1.79,13.39-8.69,22.7-16.98,30.99
		c0.06-1.23,0.06-2.47,0.06-3.75c0-21.07-3.92-31.33-14.74-31.33c-11.49,0-19.67,16.36-22.81,34.46h-0.5
		c0.5-7.4,1.68-18.38,1.68-24.77c0-7-1.68-8.91-6.78-8.91c-5.49,0-9.41,1.91-9.41,2.41c0,1.06,1.85,1.29,1.85,18.77
		c0,32.84-2.47,50.1-2.47,80.81c0,10.76,1.85,15.02,8.35,15.02c3.98,0,8.07-2.07,8.07-3.14c0-0.62-3.25-6-3.25-30.65
		c0-43.54,12.67-75.49,21.18-75.49c3.47,0,5.1,4.2,5.1,17.2c0,8.69-0.34,15.97-0.95,22.02c-10.26,8.69-19.22,16.08-19.22,25.27
		c0,5.77,3.53,8.8,8.8,8.8c11.1,0,22.36-15.02,24.71-40.52c6.67-6.28,12.83-13.23,16.14-21.07c-1.18,13.84-2.47,27.4-2.47,40.46
		c0,14.57,3.53,21.24,11.99,21.24c12.5,0,21.41-18.44,23.09-42.09l0.17,0.11c-0.17,9.75-0.5,24.66-0.5,28.02
		c0,11.04,3.7,14.57,10.03,14.57c12.33,0,22.19-16.31,23.99-39c0.56,6.16,1.74,21.69,1.74,38.84c0,4.32-0.22,8.35-0.73,11.99
		c-6.39-2.07-13.17-3.31-19.67-3.31c-16.48,0-29.31,4.6-29.31,15.58c0,10.7,13.28,15.64,25.39,15.97
		c-0.06,3.81-0.17,7.68-0.39,11.66c-1.46-0.39-2.86-0.62-4.26-0.62c-10.2-0.11-18.66,8.91-21.69,25.27l0,0
		c-2.19,15.52-6.44,28.36-10.48,28.36c-1.74,0-2.3-2.02-2.3-5.94c0-9.47,1.63-24.1,1.63-28.13c0-5.16-0.17-8.13-5.04-8.13
		c-2.91,0-5.32,1.46-5.32,1.74c0.78,16.87-3.87,39.12-9.13,39.12c-2.63,0-4.6-3.75-4.6-15.07c0-25.22,3.87-39.84,11.32-39.84
		c4.03,0,5.66,4.82,5.66,9.92c0,0.39,0.11,0.5,0.39,0.5c2.86,0,6.39-1.96,6.39-5.27c0-3.87-4.09-8.01-10.7-8.46
		c-16.08-1.12-23.59,11.26-23.59,41.3c0,14.51,4.37,22.42,12.05,22.42c4.76,0,10.26-2.91,12.5-16.48c-0.11,2.02-0.17,3.47-0.17,3.75
		c0,9.19,1.57,14.79,7.29,14.79c6.16,0,10.48-5.94,13.11-16.64c0.73,11.32,3.81,19.05,11.66,19.05c5.21,0,10.59-3.87,13.23-18.38
		c0.11,1.23,0.17,2.47,0.17,3.47c0,10.31,1.63,17.04,8.52,17.04c4.76,0,8.63-4.54,10.82-13.62c1.46,11.38,6.16,19.22,16.48,19.22
		c9.53,0,15.24-8.29,15.19-17.6c0-3.7-2.02-5.88-5.1-5.88c-1.85,0-2.86,0.67-2.86,0.9c0,0.17,0.11,1.23,0.11,2.58
		c0,8.63-2.52,16.48-7.45,16.48c-4.82,0-7.06-9.19-7.12-22.14c0.45,0.11,1.12,0.22,2.02,0.22c12.83,0,21.01-8.74,21.01-24.27
		c0-8.63-4.09-16.25-13.28-16.25c-10.82,0-16.87,9.36-18.89,25.16c-0.17,1.01-0.45,4.76-0.5,4.99c-0.9,12.1-3.53,23.99-7.45,23.99
		c-2.02,0-3.03-1.79-3.03-11.1c0-22.02,2.58-42.48,3.19-59.12C455.95,449.62,463.29,442.79,467.72,432.76 M350.09,407.03
		c-1.4,0-2.86-0.62-2.86-3.53c0-6,6-12.05,13.73-18.83C358.27,402.61,353.17,407.03,350.09,407.03 M471.42,471.42
		c3.42,0,4.26,5.27,4.15,11.26c-0.34,13.9-3.92,22.19-10.76,22.19c-1.23,0-1.85-0.11-2.3-0.28
		C462.79,483.3,466.26,471.42,471.42,471.42 M423,438.02c0-7.34,6.28-12.78,19.11-12.78c5.6-0.11,11.49,1.01,16.87,3.25
		c-1.96,9.92-6.22,16.59-13.28,19.33c0-0.95,0.06-1.85,0.06-2.75c0-8.63-2.63-10.2-7.45-10.03c-1.74,0.06-3.19,0.73-3.19,0.95
		c0,0.67,0.95,1.34,0.95,13.17C427.82,448.73,423,444.25,423,438.02 M423.39,520.63c-3.14,0-4.6-4.6-4.6-16.64
		c0-22.64,4.03-36.43,13.39-36.43c1.23,0,2.3,0.22,3.19,0.56c-0.28,4.65-0.62,9.36-0.95,14.01
		C432.86,501.01,428.32,520.63,423.39,520.63"/>
	<path class="st0" d="M199.46,478.88c0-8.63-4.09-16.25-13.28-16.25c-13.51,0-19.84,14.57-19.84,38.22
		c0,17.71,4.48,27.74,17.2,27.74c9.53,0,15.24-8.29,15.19-17.6c0-3.7-2.02-5.88-5.1-5.88c-1.85,0-2.86,0.67-2.86,0.9
		c0,0.17,0.11,1.23,0.11,2.52c0,8.63-2.52,16.53-7.45,16.53c-4.82,0-7.06-8.18-7.12-22.14c0.45,0.11,1.12,0.22,2.02,0.22
		C191.22,503.14,199.46,494.4,199.46,478.88 M185.34,466.1c3.42,0,4.26,5.21,4.15,11.26c-0.34,13.9-3.92,22.19-10.76,22.19
		c-1.23,0-1.85-0.11-2.3-0.28C176.76,480.39,180.24,466.1,185.34,466.1"/>
	<path class="st0" d="M227.76,401.94c0.11,10.42,1.23,11.77,6.61,11.77c3.98,0,7.96-1.51,7.96-2.35c0-0.39-1.06-3.75-1.06-13.45
		c0-20.45,8.57-58.67,18.77-58.67c2.86,0,3.59,2.97,3.59,8.35c0,16.2-3.19,34.13-3.19,48.98c0,13.23,1.23,14.79,7.12,14.79
		c3.98,0,9.13-1.85,9.13-3.14c0-0.73-1.85-1.29-1.85-12.67c0-21.97,10.76-56.94,18.72-56.94c3.14,0,3.31,4.09,3.31,9.86
		c0,9.41-2.41,29.93-2.41,48.42c0,12.33,3.14,14.96,9.02,14.96c3.98,0,8.35-2.13,8.35-3.42c0-1.01-3.08-1.4-3.08-11.21
		c0-24.94,2.47-38.61,2.47-54.13c0-9.3-4.15-13.06-10.54-13.06c-13.67,0-21.24,14.35-24.27,32.9h-0.17
		c0.34-5.77,1.29-11.21,1.34-18.72c0-9.02-3.92-13.56-11.99-13.56c-5.77,0-17.65,2.35-23.48,32.5h-0.28
		c0.06-6.84,0.73-12.27,0.73-21.18c0-7-1.29-8.91-6.44-8.91c-5.49,0-8.97,1.91-8.97,2.41c0,0.9,1.85,1.23,1.85,19.33
		C228.93,366.35,227.93,385.4,227.76,401.94"/>
	<path class="st0" d="M267.21,471.31c0-7.4-2.07-13.28-8.69-13.28c-8.41,0-13.45,9.58-16.36,24.38c0.28-3.36,0.56-7,0.56-11.15
		c0-7.34-2.86-11.88-7.73-11.88c-4.76,0-12.44,1.91-16.98,25.05c0-20.17-0.28-23.42-6.11-23.14c-3.53,0.17-6.11,2.02-6.11,2.41
		c0,0.62,3.08,0.9,3.08,20.01c0,10.37-0.5,23.37-0.56,30.77c0.11,8.46,1.01,9.53,5.38,9.53c3.25,0,6.22-1.23,6.22-1.91
		c0-0.34-1.74-2.3-1.74-14.23c0-15.97,6.78-42.2,12.61-42.2c1.74,0,2.19,3.03,2.19,8.13c0,13.17-1.4,23.99-1.29,35.98
		c0.11,10.7-0.28,11.99,4.54,11.99c3.25,0,6.95-1.74,6.95-2.8c0-0.56-1.34-1.12-1.46-10.37c-0.17-14.57,7-44.33,13.06-44.33
		c1.74,0,2.41,2.75,2.41,8.13c0,7.51-1.68,21.13-1.68,35.81c0,9.81,1.34,11.88,6,11.88c3.19,0,6.39-1.68,6.39-2.75
		c0-0.78-2.52-1.51-2.52-9.36C265.3,489.13,267.21,483.7,267.21,471.31"/>
</g>
<g>
	<path class="st1" d="M246.86,525.27c-0.39,0-0.84,0.67-1.51,1.29c-4.76,4.82-9.75,9.41-27.8,9.41c-22.02,0-45.45-9.13-71.23-9.53
		c-1.12,0-2.24,0-3.31,0c0.45-3.42,0.67-6.95,0.67-10.65c0-6.44-0.67-13.56-1.34-22.19c2.58-1.68,4.15-3.31,4.15-3.31
		c8.63-8.13,13.28-21.07,13.28-34.02c0-11.94-5.04-21.35-13.34-21.35c-13.23,0-15.69,22.47-15.69,41.81c0,4.93,0.5,10.87,1.01,17.09
		c-0.45,0-0.9,0.06-1.34,0.06c-9.98-0.67-14.63-8.85-15.52-18.44c-1.51-16.48,5.21-23.37,10.09-25.55c0,0-1.74-3.19-6.16-3.19
		c-8.41,0-13.06,9.92-13.06,21.07c0,15.07,7.57,28.36,21.69,29.7c1.01,0.11,1.96,0.11,2.91,0.06c0.62,0,1.18-0.06,1.74-0.11
		c0.73,7.68,1.4,15.47,1.4,22.19c0,2.8-0.11,5.38-0.22,7.79c-16.48,3.08-23.14,12.66-23.2,21.41c-0.06,5.88,3.75,9.19,9.13,9.25
		c11.49,0.11,19.33-10.09,22.7-24.99c0.39,0,0.78,0,1.12,0c20.62,0.34,43.37,12.05,68.54,12.05c21.63,0,31.27-9.25,35.53-18.33
		C247.36,526,247.36,525.27,246.86,525.27 M141.28,467.11c0-39.84,9.58-32.11,9.58-14.18c0,21.18-3.87,31.49-8.8,36.48
		C141.61,482.96,141.28,475.62,141.28,467.11 M119.31,554.08c-3.19,0-5.32-2.07-5.32-5.32c0-6.89,6.89-12.83,18.61-14.91
		C130.52,547.92,125.36,554.08,119.31,554.08"/>
	<path class="st1" d="M350.7,463.13c0-6.5-1.79-13.17-8.35-13.17c-5.16,0-12.55,3.31-17.48,25.72c0.17-5.38,0.39-11.21,0.39-15.24
		c0-6.44-1.23-9.19-5.27-9.19c-3.03,0-6.33,1.51-6.33,1.91c-0.17,3.42-3.36,14.12-8.57,22.47c-0.11-16.31-4.37-27.07-15.69-27.07
		l0,0l0,0l0,0c-12.95,0-18.44,13.9-18.44,37.49c0,17.26,3.92,27.74,15.8,27.74l0,0l0,0l0,0l0,0c11.1,0,17.43-10.93,18.27-32.56
		c6.05-7.34,9.69-17.6,10.7-23.87c0.5,2.97,0.78,8.13,0.62,17.2c-0.17,8.91-1.34,20.06-1.34,33.68c0,3.47,0.67,4.99,3.75,4.99
		c4.03,0,7.34-1.29,7.34-2.02c0-0.34-1.18-1.57-1.18-9.58c0-22.19,8.01-45.34,13.45-45.34c2.02,0,2.41,2.75,2.41,8.24
		c0,6.67-2.13,22.7-2.13,37.43c0,9.81,1.34,11.88,6,11.88c3.19,0,6.61-1.68,6.61-2.75c0-0.78-2.63-1.12-2.63-8.91
		C348.57,484.81,350.7,472.99,350.7,463.13 M289.17,452.03c4.32,0,5.55,8.85,5.55,22.98c0,3.87-0.06,7.34-0.17,10.48
		c-1.4,0.62-2.86,0.95-4.37,0.95c-6.89,0-8.63-8.01-8.63-14.85C281.54,460.83,284.51,452.03,289.17,452.03 M286.92,510.26
		c-4.88,0-6.5-8.18-6.5-22.02c0-1.01,0-2.3,0.17-3.19c1.79,2.8,4.71,4.82,8.63,4.82c1.79,0,3.47-0.28,5.1-0.84
		C293.42,504.43,290.79,510.26,286.92,510.26"/>
	<path class="st1" d="M194.74,310.75c0,5.44,3.92,14.57,5.83,14.57c0.56,0,0.95-0.28,1.12-1.29c1.01-6.89,3.92-18.04,11.54-22.75
		c0.39-0.22,1.46-0.84,1.46-1.4c0-0.67-1.68-1.96-5.6-1.96C199.39,297.92,194.74,302.74,194.74,310.75"/>
	<path class="st1" d="M200.4,409.22c3.98,0,8.69-1.74,8.69-3.03c0-0.5-2.52-1.06-2.52-20.79c0-18.83,1.79-38.84,1.79-46.29
		c0-7.62-1.79-9.02-5.94-9.02c-5.66,0-10.09,2.07-10.09,2.58c0,0.67,2.07,0.56,2.07,20.85c0,9.92-0.95,33.29-1.18,40.91
		C193.28,407.65,194.51,409.22,200.4,409.22"/>
	<path class="st1" d="M141.89,425.75c24.21,0,40.97-16.31,40.97-39.9c0-19.5-14.18-29.7-28.24-38.44
		c-19.05-11.82-25.95-17.65-25.95-30.15c0-16.03,13.79-26.06,24.94-26.06c6.22,0,11.88,2.58,15.07,7.17
		c-7.96,9.41-13.56,20.57-13.56,29.93c0,6.95,3.98,9.47,7.9,9.47c9.64,0,21.18-13.79,21.18-29.08c0-5.55-1.57-10.48-4.43-14.46
		c7.4-5.55,15.8-8.52,24.1-8.52c3.36,0,6,0.62,6.84,0.62c0.39,0,0.56-0.22,0.56-1.01c0-4.48-3.87-7.45-8.69-7.45
		c-8.29,0-17.93,5.16-26.34,12.61c-4.03-3.42-9.53-5.38-16.08-5.38c-21.69,0-39.84,15.47-39.84,38.22
		c0,20.9,13.34,29.65,26.84,38.11c13.23,8.29,25.78,16.98,25.78,32.73c0,15.52-11.66,26.23-26.23,26.23
		c-13.51,0-21.35-8.07-21.74-19.11c-0.5-15.3,10.31-24.77,20.79-24.77c0.39,0,0.95,0.06,1.23,0.06c0.17,0,0.22-0.11,0.22-0.22
		c0-2.41-3.75-5.16-9.36-5.16c-12.95,0-26.39,9.58-26.39,26.96C111.57,416.5,126.48,425.75,141.89,425.75 M171.99,310.59
		c0,12.38-4.03,22.92-8.97,22.92c-1.91,0-3.59-1.12-3.59-4.65c0-8.52,4.6-17.93,11.49-25.78
		C171.59,305.26,171.99,307.73,171.99,310.59"/>
	<path class="st1" d="M462.72,426.76c8.8,6.33,15.13,15.8,16.92,24.71c0.06,0.22,0.22,0.28,0.5,0.22c2.75-0.06,5.27-2.47,5.27-6.95
		c0-7.57-8.91-16.25-21.01-22.25c2.47-7.29,3.7-15.92,3.7-25.5c0-5.72-1.51-30.15-1.51-34.74c0-18.61,0.39-24.32,1.34-27.57
		c0-1.01-6.61-3.87-9.86-3.87c-4.32,0-4.88,2.3-4.88,7c0.34,20.96-8.01,60.35-17.48,60.35c-1.23,0-3.03-0.84-3.03-5.27
		c0-7.34,0.28-32.95,0.28-45.9c0-11.94-1.34-17.26-9.25-17.26c-4.88,0-7.9,1.74-7.9,2.47c0,0.11,0.06,0.17,0.11,0.28
		c6.5,14.68-3.42,65.01-13,65.01c-2.75,0-4.48-2.52-4.48-15.19c0-34.41,4.65-59.46,4.65-83.72c0-11.77-2.58-13.06-8.46-13.06
		c-4.54,0-8.29,2.02-8.29,2.52c0,0.95,2.97,1.85,2.97,18.89c0,7.06-0.34,14.12-0.78,21.13c-1.79,13.39-8.69,22.7-16.98,30.99
		c0.06-1.23,0.06-2.47,0.06-3.75c0-21.07-3.92-31.33-14.74-31.33c-11.49,0-19.67,16.36-22.81,34.46h-0.5
		c0.5-7.4,1.68-18.38,1.68-24.77c0-7-1.68-8.91-6.78-8.91c-5.49,0-9.41,1.91-9.41,2.41c0,1.06,1.85,1.29,1.85,18.77
		c0,32.84-2.47,50.1-2.47,80.81c0,10.76,1.85,15.02,8.35,15.02c3.98,0,8.07-2.07,8.07-3.14c0-0.62-3.25-6-3.25-30.65
		c0-43.54,12.67-75.49,21.18-75.49c3.47,0,5.1,4.2,5.1,17.2c0,8.69-0.34,15.97-0.95,22.02c-10.26,8.69-19.22,16.08-19.22,25.27
		c0,5.77,3.53,8.8,8.8,8.8c11.1,0,22.36-15.02,24.71-40.52c6.67-6.28,12.83-13.23,16.14-21.07c-1.18,13.84-2.47,27.4-2.47,40.46
		c0,14.57,3.53,21.24,11.99,21.24c12.5,0,21.41-18.44,23.09-42.09l0.17,0.11c-0.17,9.75-0.5,24.66-0.5,28.02
		c0,11.04,3.7,14.57,10.03,14.57c12.33,0,22.19-16.31,23.99-39c0.56,6.16,1.74,21.69,1.74,38.84c0,4.32-0.22,8.35-0.73,11.99
		c-6.39-2.07-13.17-3.31-19.67-3.31c-16.48,0-29.31,4.6-29.31,15.58c0,10.7,13.28,15.64,25.39,15.97
		c-0.06,3.81-0.17,7.68-0.39,11.66c-1.46-0.39-2.86-0.62-4.26-0.62c-10.2-0.11-18.66,8.91-21.69,25.27l0,0
		c-2.19,15.52-6.44,28.36-10.48,28.36c-1.74,0-2.3-2.02-2.3-5.94c0-9.47,1.63-24.1,1.63-28.13c0-5.16-0.17-8.13-5.04-8.13
		c-2.91,0-5.32,1.46-5.32,1.74c0.78,16.87-3.87,39.12-9.13,39.12c-2.63,0-4.6-3.75-4.6-15.07c0-25.22,3.87-39.84,11.32-39.84
		c4.03,0,5.66,4.82,5.66,9.92c0,0.39,0.11,0.5,0.39,0.5c2.86,0,6.39-1.96,6.39-5.27c0-3.87-4.09-8.01-10.7-8.46
		c-16.08-1.12-23.59,11.26-23.59,41.3c0,14.51,4.37,22.42,12.05,22.42c4.76,0,10.26-2.91,12.5-16.48c-0.11,2.02-0.17,3.47-0.17,3.75
		c0,9.19,1.57,14.79,7.29,14.79c6.16,0,10.48-5.94,13.11-16.64c0.73,11.32,3.81,19.05,11.66,19.05c5.21,0,10.59-3.87,13.23-18.38
		c0.11,1.23,0.17,2.47,0.17,3.47c0,10.31,1.63,17.04,8.52,17.04c4.76,0,8.63-4.54,10.82-13.62c1.46,11.38,6.16,19.22,16.48,19.22
		c9.53,0,15.24-8.29,15.19-17.6c0-3.7-2.02-5.88-5.1-5.88c-1.85,0-2.86,0.67-2.86,0.9c0,0.17,0.11,1.23,0.11,2.58
		c0,8.63-2.52,16.48-7.45,16.48c-4.82,0-7.06-9.19-7.12-22.14c0.45,0.11,1.12,0.22,2.02,0.22c12.83,0,21.01-8.74,21.01-24.27
		c0-8.63-4.09-16.25-13.28-16.25c-10.82,0-16.87,9.36-18.89,25.16c-0.17,1.01-0.45,4.76-0.5,4.99c-0.9,12.1-3.53,23.99-7.45,23.99
		c-2.02,0-3.03-1.79-3.03-11.1c0-22.02,2.58-42.48,3.19-59.12C450.95,443.62,458.29,436.79,462.72,426.76 M345.09,401.03
		c-1.4,0-2.86-0.62-2.86-3.53c0-6,6-12.05,13.73-18.83C353.27,396.61,348.17,401.03,345.09,401.03 M466.42,465.42
		c3.42,0,4.26,5.27,4.15,11.26c-0.34,13.9-3.92,22.19-10.76,22.19c-1.23,0-1.85-0.11-2.3-0.28
		C457.79,477.3,461.26,465.42,466.42,465.42 M418,432.02c0-7.34,6.28-12.78,19.11-12.78c5.6-0.11,11.49,1.01,16.87,3.25
		c-1.96,9.92-6.22,16.59-13.28,19.33c0-0.95,0.06-1.85,0.06-2.75c0-8.63-2.63-10.2-7.45-10.03c-1.74,0.06-3.19,0.73-3.19,0.95
		c0,0.67,0.95,1.34,0.95,13.17C422.82,442.73,418,438.25,418,432.02 M418.39,514.63c-3.14,0-4.6-4.6-4.6-16.64
		c0-22.64,4.03-36.43,13.39-36.43c1.23,0,2.3,0.22,3.19,0.56c-0.28,4.65-0.62,9.36-0.95,14.01
		C427.86,495.01,423.32,514.63,418.39,514.63"/>
	<path class="st1" d="M194.46,472.88c0-8.63-4.09-16.25-13.28-16.25c-13.51,0-19.84,14.57-19.84,38.22
		c0,17.71,4.48,27.74,17.2,27.74c9.53,0,15.24-8.29,15.19-17.6c0-3.7-2.02-5.88-5.1-5.88c-1.85,0-2.86,0.67-2.86,0.9
		c0,0.17,0.11,1.23,0.11,2.52c0,8.63-2.52,16.53-7.45,16.53c-4.82,0-7.06-8.18-7.12-22.14c0.45,0.11,1.12,0.22,2.02,0.22
		C186.22,497.14,194.46,488.4,194.46,472.88 M180.34,460.1c3.42,0,4.26,5.21,4.15,11.26c-0.34,13.9-3.92,22.19-10.76,22.19
		c-1.23,0-1.85-0.11-2.3-0.28C171.76,474.39,175.24,460.1,180.34,460.1"/>
	<path class="st1" d="M222.76,395.94c0.11,10.42,1.23,11.77,6.61,11.77c3.98,0,7.96-1.51,7.96-2.35c0-0.39-1.06-3.75-1.06-13.45
		c0-20.45,8.57-58.67,18.77-58.67c2.86,0,3.59,2.97,3.59,8.35c0,16.2-3.19,34.13-3.19,48.98c0,13.23,1.23,14.79,7.12,14.79
		c3.98,0,9.13-1.85,9.13-3.14c0-0.73-1.85-1.29-1.85-12.67c0-21.97,10.76-56.94,18.72-56.94c3.14,0,3.31,4.09,3.31,9.86
		c0,9.41-2.41,29.93-2.41,48.42c0,12.33,3.14,14.96,9.02,14.96c3.98,0,8.35-2.13,8.35-3.42c0-1.01-3.08-1.4-3.08-11.21
		c0-24.94,2.47-38.61,2.47-54.13c0-9.3-4.15-13.06-10.54-13.06c-13.67,0-21.24,14.35-24.27,32.9h-0.17
		c0.34-5.77,1.29-11.21,1.34-18.72c0-9.02-3.92-13.56-11.99-13.56c-5.77,0-17.65,2.35-23.48,32.5h-0.28
		c0.06-6.84,0.73-12.27,0.73-21.18c0-7-1.29-8.91-6.44-8.91c-5.49,0-8.97,1.91-8.97,2.41c0,0.9,1.85,1.23,1.85,19.33
		C223.93,360.35,222.93,379.4,222.76,395.94"/>
	<path class="st1" d="M262.21,465.31c0-7.4-2.07-13.28-8.69-13.28c-8.41,0-13.45,9.58-16.36,24.38c0.28-3.36,0.56-7,0.56-11.15
		c0-7.34-2.86-11.88-7.73-11.88c-4.76,0-12.44,1.91-16.98,25.05c0-20.17-0.28-23.42-6.11-23.14c-3.53,0.17-6.11,2.02-6.11,2.41
		c0,0.62,3.08,0.9,3.08,20.01c0,10.37-0.5,23.37-0.56,30.77c0.11,8.46,1.01,9.53,5.38,9.53c3.25,0,6.22-1.23,6.22-1.91
		c0-0.34-1.74-2.3-1.74-14.23c0-15.97,6.78-42.2,12.61-42.2c1.74,0,2.19,3.03,2.19,8.13c0,13.17-1.4,23.99-1.29,35.98
		c0.11,10.7-0.28,11.99,4.54,11.99c3.25,0,6.95-1.74,6.95-2.8c0-0.56-1.34-1.12-1.46-10.37c-0.17-14.57,7-44.33,13.06-44.33
		c1.74,0,2.41,2.75,2.41,8.13c0,7.51-1.68,21.13-1.68,35.81c0,9.81,1.34,11.88,6,11.88c3.19,0,6.39-1.68,6.39-2.75
		c0-0.78-2.52-1.51-2.52-9.36C260.3,483.13,262.21,477.7,262.21,465.31"/>
</g>
<g>
	<path class="st2" d="M246.86,525.27c-0.39,0-0.84,0.67-1.51,1.29c-4.76,4.82-9.75,9.41-27.8,9.41c-22.02,0-45.45-9.13-71.23-9.53
		c-1.12,0-2.24,0-3.31,0c0.45-3.42,0.67-6.95,0.67-10.65c0-6.44-0.67-13.56-1.34-22.19c2.58-1.68,4.15-3.31,4.15-3.31
		c8.63-8.13,13.28-21.07,13.28-34.02c0-11.94-5.04-21.35-13.34-21.35c-13.23,0-15.69,22.47-15.69,41.81c0,4.93,0.5,10.87,1.01,17.09
		c-0.45,0-0.9,0.06-1.34,0.06c-9.98-0.67-14.63-8.85-15.52-18.44c-1.51-16.48,5.21-23.37,10.09-25.55c0,0-1.74-3.19-6.16-3.19
		c-8.41,0-13.06,9.92-13.06,21.07c0,15.07,7.57,28.36,21.69,29.7c1.01,0.11,1.96,0.11,2.91,0.06c0.62,0,1.18-0.06,1.74-0.11
		c0.73,7.68,1.4,15.47,1.4,22.19c0,2.8-0.11,5.38-0.22,7.79c-16.48,3.08-23.14,12.66-23.2,21.41c-0.06,5.88,3.75,9.19,9.13,9.25
		c11.49,0.11,19.33-10.09,22.7-24.99c0.39,0,0.78,0,1.12,0c20.62,0.34,43.37,12.05,68.54,12.05c21.63,0,31.27-9.25,35.53-18.33
		C247.36,526,247.36,525.27,246.86,525.27 M141.28,467.11c0-39.84,9.58-32.11,9.58-14.18c0,21.18-3.87,31.49-8.8,36.48
		C141.61,482.96,141.28,475.62,141.28,467.11 M119.31,554.08c-3.19,0-5.32-2.07-5.32-5.32c0-6.89,6.89-12.83,18.61-14.91
		C130.52,547.92,125.36,554.08,119.31,554.08"/>
	<path class="st2" d="M350.7,463.13c0-6.5-1.79-13.17-8.35-13.17c-5.16,0-12.55,3.31-17.48,25.72c0.17-5.38,0.39-11.21,0.39-15.24
		c0-6.44-1.23-9.19-5.27-9.19c-3.03,0-6.33,1.51-6.33,1.91c-0.17,3.42-3.36,14.12-8.57,22.47c-0.11-16.31-4.37-27.07-15.69-27.07
		l0,0l0,0l0,0c-12.95,0-18.44,13.9-18.44,37.49c0,17.26,3.92,27.74,15.8,27.74l0,0l0,0l0,0l0,0c11.1,0,17.43-10.93,18.27-32.56
		c6.05-7.34,9.69-17.6,10.7-23.87c0.5,2.97,0.78,8.13,0.62,17.2c-0.17,8.91-1.34,20.06-1.34,33.68c0,3.47,0.67,4.99,3.75,4.99
		c4.03,0,7.34-1.29,7.34-2.02c0-0.34-1.18-1.57-1.18-9.58c0-22.19,8.01-45.34,13.45-45.34c2.02,0,2.41,2.75,2.41,8.24
		c0,6.67-2.13,22.7-2.13,37.43c0,9.81,1.34,11.88,6,11.88c3.19,0,6.61-1.68,6.61-2.75c0-0.78-2.63-1.12-2.63-8.91
		C348.57,484.81,350.7,472.99,350.7,463.13 M289.17,452.03c4.32,0,5.55,8.85,5.55,22.98c0,3.87-0.06,7.34-0.17,10.48
		c-1.4,0.62-2.86,0.95-4.37,0.95c-6.89,0-8.63-8.01-8.63-14.85C281.54,460.83,284.51,452.03,289.17,452.03 M286.92,510.26
		c-4.88,0-6.5-8.18-6.5-22.02c0-1.01,0-2.3,0.17-3.19c1.79,2.8,4.71,4.82,8.63,4.82c1.79,0,3.47-0.28,5.1-0.84
		C293.42,504.43,290.79,510.26,286.92,510.26"/>
	<path class="st2" d="M194.74,310.75c0,5.44,3.92,14.57,5.83,14.57c0.56,0,0.95-0.28,1.12-1.29c1.01-6.89,3.92-18.04,11.54-22.75
		c0.39-0.22,1.46-0.84,1.46-1.4c0-0.67-1.68-1.96-5.6-1.96C199.39,297.92,194.74,302.74,194.74,310.75"/>
	<path class="st2" d="M200.4,409.22c3.98,0,8.69-1.74,8.69-3.03c0-0.5-2.52-1.06-2.52-20.79c0-18.83,1.79-38.84,1.79-46.29
		c0-7.62-1.79-9.02-5.94-9.02c-5.66,0-10.09,2.07-10.09,2.58c0,0.67,2.07,0.56,2.07,20.85c0,9.92-0.95,33.29-1.18,40.91
		C193.28,407.65,194.51,409.22,200.4,409.22"/>
	<path class="st2" d="M141.89,425.75c24.21,0,40.97-16.31,40.97-39.9c0-19.5-14.18-29.7-28.24-38.44
		c-19.05-11.82-25.95-17.65-25.95-30.15c0-16.03,13.79-26.06,24.94-26.06c6.22,0,11.88,2.58,15.07,7.17
		c-7.96,9.41-13.56,20.57-13.56,29.93c0,6.95,3.98,9.47,7.9,9.47c9.64,0,21.18-13.79,21.18-29.08c0-5.55-1.57-10.48-4.43-14.46
		c7.4-5.55,15.8-8.52,24.1-8.52c3.36,0,6,0.62,6.84,0.62c0.39,0,0.56-0.22,0.56-1.01c0-4.48-3.87-7.45-8.69-7.45
		c-8.29,0-17.93,5.16-26.34,12.61c-4.03-3.42-9.53-5.38-16.08-5.38c-21.69,0-39.84,15.47-39.84,38.22
		c0,20.9,13.34,29.65,26.84,38.11c13.23,8.29,25.78,16.98,25.78,32.73c0,15.52-11.66,26.23-26.23,26.23
		c-13.51,0-21.35-8.07-21.74-19.11c-0.5-15.3,10.31-24.77,20.79-24.77c0.39,0,0.95,0.06,1.23,0.06c0.17,0,0.22-0.11,0.22-0.22
		c0-2.41-3.75-5.16-9.36-5.16c-12.95,0-26.39,9.58-26.39,26.96C111.57,416.5,126.48,425.75,141.89,425.75 M171.99,310.59
		c0,12.38-4.03,22.92-8.97,22.92c-1.91,0-3.59-1.12-3.59-4.65c0-8.52,4.6-17.93,11.49-25.78
		C171.59,305.26,171.99,307.73,171.99,310.59"/>
	<path class="st2" d="M462.72,426.76c8.8,6.33,15.13,15.8,16.92,24.71c0.06,0.22,0.22,0.28,0.5,0.22c2.75-0.06,5.27-2.47,5.27-6.95
		c0-7.57-8.91-16.25-21.01-22.25c2.47-7.29,3.7-15.92,3.7-25.5c0-5.72-1.51-30.15-1.51-34.74c0-18.61,0.39-24.32,1.34-27.57
		c0-1.01-6.61-3.87-9.86-3.87c-4.32,0-4.88,2.3-4.88,7c0.34,20.96-8.01,60.35-17.48,60.35c-1.23,0-3.03-0.84-3.03-5.27
		c0-7.34,0.28-32.95,0.28-45.9c0-11.94-1.34-17.26-9.25-17.26c-4.88,0-7.9,1.74-7.9,2.47c0,0.11,0.06,0.17,0.11,0.28
		c6.5,14.68-3.42,65.01-13,65.01c-2.75,0-4.48-2.52-4.48-15.19c0-34.41,4.65-59.46,4.65-83.72c0-11.77-2.58-13.06-8.46-13.06
		c-4.54,0-8.29,2.02-8.29,2.52c0,0.95,2.97,1.85,2.97,18.89c0,7.06-0.34,14.12-0.78,21.13c-1.79,13.39-8.69,22.7-16.98,30.99
		c0.06-1.23,0.06-2.47,0.06-3.75c0-21.07-3.92-31.33-14.74-31.33c-11.49,0-19.67,16.36-22.81,34.46h-0.5
		c0.5-7.4,1.68-18.38,1.68-24.77c0-7-1.68-8.91-6.78-8.91c-5.49,0-9.41,1.91-9.41,2.41c0,1.06,1.85,1.29,1.85,18.77
		c0,32.84-2.47,50.1-2.47,80.81c0,10.76,1.85,15.02,8.35,15.02c3.98,0,8.07-2.07,8.07-3.14c0-0.62-3.25-6-3.25-30.65
		c0-43.54,12.67-75.49,21.18-75.49c3.47,0,5.1,4.2,5.1,17.2c0,8.69-0.34,15.97-0.95,22.02c-10.26,8.69-19.22,16.08-19.22,25.27
		c0,5.77,3.53,8.8,8.8,8.8c11.1,0,22.36-15.02,24.71-40.52c6.67-6.28,12.83-13.23,16.14-21.07c-1.18,13.84-2.47,27.4-2.47,40.46
		c0,14.57,3.53,21.24,11.99,21.24c12.5,0,21.41-18.44,23.09-42.09l0.17,0.11c-0.17,9.75-0.5,24.66-0.5,28.02
		c0,11.04,3.7,14.57,10.03,14.57c12.33,0,22.19-16.31,23.99-39c0.56,6.16,1.74,21.69,1.74,38.84c0,4.32-0.22,8.35-0.73,11.99
		c-6.39-2.07-13.17-3.31-19.67-3.31c-16.48,0-29.31,4.6-29.31,15.58c0,10.7,13.28,15.64,25.39,15.97
		c-0.06,3.81-0.17,7.68-0.39,11.66c-1.46-0.39-2.86-0.62-4.26-0.62c-10.2-0.11-18.66,8.91-21.69,25.27l0,0
		c-2.19,15.52-6.44,28.36-10.48,28.36c-1.74,0-2.3-2.02-2.3-5.94c0-9.47,1.63-24.1,1.63-28.13c0-5.16-0.17-8.13-5.04-8.13
		c-2.91,0-5.32,1.46-5.32,1.74c0.78,16.87-3.87,39.12-9.13,39.12c-2.63,0-4.6-3.75-4.6-15.07c0-25.22,3.87-39.84,11.32-39.84
		c4.03,0,5.66,4.82,5.66,9.92c0,0.39,0.11,0.5,0.39,0.5c2.86,0,6.39-1.96,6.39-5.27c0-3.87-4.09-8.01-10.7-8.46
		c-16.08-1.12-23.59,11.26-23.59,41.3c0,14.51,4.37,22.42,12.05,22.42c4.76,0,10.26-2.91,12.5-16.48c-0.11,2.02-0.17,3.47-0.17,3.75
		c0,9.19,1.57,14.79,7.29,14.79c6.16,0,10.48-5.94,13.11-16.64c0.73,11.32,3.81,19.05,11.66,19.05c5.21,0,10.59-3.87,13.23-18.38
		c0.11,1.23,0.17,2.47,0.17,3.47c0,10.31,1.63,17.04,8.52,17.04c4.76,0,8.63-4.54,10.82-13.62c1.46,11.38,6.16,19.22,16.48,19.22
		c9.53,0,15.24-8.29,15.19-17.6c0-3.7-2.02-5.88-5.1-5.88c-1.85,0-2.86,0.67-2.86,0.9c0,0.17,0.11,1.23,0.11,2.58
		c0,8.63-2.52,16.48-7.45,16.48c-4.82,0-7.06-9.19-7.12-22.14c0.45,0.11,1.12,0.22,2.02,0.22c12.83,0,21.01-8.74,21.01-24.27
		c0-8.63-4.09-16.25-13.28-16.25c-10.82,0-16.87,9.36-18.89,25.16c-0.17,1.01-0.45,4.76-0.5,4.99c-0.9,12.1-3.53,23.99-7.45,23.99
		c-2.02,0-3.03-1.79-3.03-11.1c0-22.02,2.58-42.48,3.19-59.12C450.95,443.62,458.29,436.79,462.72,426.76 M345.09,401.03
		c-1.4,0-2.86-0.62-2.86-3.53c0-6,6-12.05,13.73-18.83C353.27,396.61,348.17,401.03,345.09,401.03 M466.42,465.42
		c3.42,0,4.26,5.27,4.15,11.26c-0.34,13.9-3.92,22.19-10.76,22.19c-1.23,0-1.85-0.11-2.3-0.28
		C457.79,477.3,461.26,465.42,466.42,465.42 M418,432.02c0-7.34,6.28-12.78,19.11-12.78c5.6-0.11,11.49,1.01,16.87,3.25
		c-1.96,9.92-6.22,16.59-13.28,19.33c0-0.95,0.06-1.85,0.06-2.75c0-8.63-2.63-10.2-7.45-10.03c-1.74,0.06-3.19,0.73-3.19,0.95
		c0,0.67,0.95,1.34,0.95,13.17C422.82,442.73,418,438.25,418,432.02 M418.39,514.63c-3.14,0-4.6-4.6-4.6-16.64
		c0-22.64,4.03-36.43,13.39-36.43c1.23,0,2.3,0.22,3.19,0.56c-0.28,4.65-0.62,9.36-0.95,14.01
		C427.86,495.01,423.32,514.63,418.39,514.63"/>
	<path class="st2" d="M194.46,472.88c0-8.63-4.09-16.25-13.28-16.25c-13.51,0-19.84,14.57-19.84,38.22
		c0,17.71,4.48,27.74,17.2,27.74c9.53,0,15.24-8.29,15.19-17.6c0-3.7-2.02-5.88-5.1-5.88c-1.85,0-2.86,0.67-2.86,0.9
		c0,0.17,0.11,1.23,0.11,2.52c0,8.63-2.52,16.53-7.45,16.53c-4.82,0-7.06-8.18-7.12-22.14c0.45,0.11,1.12,0.22,2.02,0.22
		C186.22,497.14,194.46,488.4,194.46,472.88 M180.34,460.1c3.42,0,4.26,5.21,4.15,11.26c-0.34,13.9-3.92,22.19-10.76,22.19
		c-1.23,0-1.85-0.11-2.3-0.28C171.76,474.39,175.24,460.1,180.34,460.1"/>
	<path class="st2" d="M222.76,395.94c0.11,10.42,1.23,11.77,6.61,11.77c3.98,0,7.96-1.51,7.96-2.35c0-0.39-1.06-3.75-1.06-13.45
		c0-20.45,8.57-58.67,18.77-58.67c2.86,0,3.59,2.97,3.59,8.35c0,16.2-3.19,34.13-3.19,48.98c0,13.23,1.23,14.79,7.12,14.79
		c3.98,0,9.13-1.85,9.13-3.14c0-0.73-1.85-1.29-1.85-12.67c0-21.97,10.76-56.94,18.72-56.94c3.14,0,3.31,4.09,3.31,9.86
		c0,9.41-2.41,29.93-2.41,48.42c0,12.33,3.14,14.96,9.02,14.96c3.98,0,8.35-2.13,8.35-3.42c0-1.01-3.08-1.4-3.08-11.21
		c0-24.94,2.47-38.61,2.47-54.13c0-9.3-4.15-13.06-10.54-13.06c-13.67,0-21.24,14.35-24.27,32.9h-0.17
		c0.34-5.77,1.29-11.21,1.34-18.72c0-9.02-3.92-13.56-11.99-13.56c-5.77,0-17.65,2.35-23.48,32.5h-0.28
		c0.06-6.84,0.73-12.27,0.73-21.18c0-7-1.29-8.91-6.44-8.91c-5.49,0-8.97,1.91-8.97,2.41c0,0.9,1.85,1.23,1.85,19.33
		C223.93,360.35,222.93,379.4,222.76,395.94"/>
	<path class="st2" d="M262.21,465.31c0-7.4-2.07-13.28-8.69-13.28c-8.41,0-13.45,9.58-16.36,24.38c0.28-3.36,0.56-7,0.56-11.15
		c0-7.34-2.86-11.88-7.73-11.88c-4.76,0-12.44,1.91-16.98,25.05c0-20.17-0.28-23.42-6.11-23.14c-3.53,0.17-6.11,2.02-6.11,2.41
		c0,0.62,3.08,0.9,3.08,20.01c0,10.37-0.5,23.37-0.56,30.77c0.11,8.46,1.01,9.53,5.38,9.53c3.25,0,6.22-1.23,6.22-1.91
		c0-0.34-1.74-2.3-1.74-14.23c0-15.97,6.78-42.2,12.61-42.2c1.74,0,2.19,3.03,2.19,8.13c0,13.17-1.4,23.99-1.29,35.98
		c0.11,10.7-0.28,11.99,4.54,11.99c3.25,0,6.95-1.74,6.95-2.8c0-0.56-1.34-1.12-1.46-10.37c-0.17-14.57,7-44.33,13.06-44.33
		c1.74,0,2.41,2.75,2.41,8.13c0,7.51-1.68,21.13-1.68,35.81c0,9.81,1.34,11.88,6,11.88c3.19,0,6.39-1.68,6.39-2.75
		c0-0.78-2.52-1.51-2.52-9.36C260.3,483.13,262.21,477.7,262.21,465.31"/>
</g>
</svg>
