<svg id="Layer_1" data-name="Layer 1" xmlns="http://www.w3.org/2000/svg" viewBox="0 0 98 45.32"><defs><style>.cls-1{fill:#005c4c;}</style></defs><path class="cls-1" d="M270.85,407c0,1.42,1,3.8,1.53,3.8.15,0,.24-.08.29-.34.26-1.8,1-4.68,3-5.92.11-.06.38-.21.38-.36s-.44-.5-1.44-.5C272.06,403.65,270.85,404.9,270.85,407Z" transform="translate(-248.51 -398.34)"/><path class="cls-1" d="M341,436.05a20.74,20.74,0,0,0,1-6.61c0-1.49-.39-7.84-.39-9,0-4.84.1-6.32.35-7.17,0-.26-1.73-1-2.57-1-1.11,0-1.26.61-1.26,1.83.09,5.46-2.09,15.71-4.55,15.71-.32,0-.77-.22-.77-1.37,0-1.93.07-8.58.07-12,0-3.11-.35-4.5-2.41-4.5-1.26,0-2,.46-2.06.64l0,.06c1.71,3.8-.88,16.93-3.38,16.93-.72,0-1.16-.65-1.16-3.95,0-8.95,1.2-15.48,1.2-21.79,0-3.07-.67-3.4-2.21-3.4a3.36,3.36,0,0,0-2.17.65c0,.25.78.48.78,4.91,0,1.85-.09,3.68-.21,5.51a13.66,13.66,0,0,1-4.42,8.05c0-.32,0-.65,0-1,0-5.49-1-8.16-3.85-8.16-3,0-5.12,4.26-5.93,9H307c.12-1.92.44-4.77.44-6.44,0-1.83-.42-2.31-1.77-2.31a3.8,3.8,0,0,0-2.45.62c0,.28.47.34.47,4.88,0,8.56-.64,13-.64,21,0,2.8.47,3.92,2.17,3.92,1,0,2.1-.54,2.1-.83s-.84-.91-.84-7.32c0-11.33,3.3-20.3,5.51-20.3.9,0,1.33,1.08,1.33,4.48,0,2.26-.09,4.15-.25,5.74-2.67,2.26-5,4.19-5,6.57a2.1,2.1,0,0,0,2.29,2.29c2.9,0,5.81-3.92,6.42-10.54a17,17,0,0,0,4.2-5.49c-.31,3.6-.64,7.14-.64,10.54,0,3.8.93,5.54,3.13,5.54,3.24,0,5.56-4.81,6-11l.05,0c-.05,2.55-.12,6.43-.12,7.3,0,2.86,1,3.79,2.61,3.79,3.22,0,5.78-4.25,6.24-10.17.13,1.59.45,5.64.45,10.13a24.38,24.38,0,0,1-.18,3.09,16.9,16.9,0,0,0-5-.83c-4.29,0-7.45,1.2-7.45,4s3.42,4.17,6.65,4.17a8.15,8.15,0,0,0,7.89-5.2A11,11,0,0,1,345,443.6s.06.06.13.06c.71,0,1.38-.64,1.38-1.82C346.51,439.88,344.19,437.6,341,436.05Zm-31-5.57c-.36,0-.75-.15-.75-.93,0-1.56,1.56-3.14,3.57-4.9C312.11,429.34,310.77,430.48,310,430.48Zm22.74,10.86c-2,0-3.34-1.08-3.34-2.79,0-2.14,1.88-3.28,4.67-3.33a10.3,10.3,0,0,1,4.27.84C337.62,439.46,335.89,441.34,332.73,441.34Z" transform="translate(-248.51 -398.34)"/><path class="cls-1" d="M272.32,432.62c1,0,2.26-.46,2.26-.8,0-.12-.66-.29-.66-5.41,0-4.91.47-10.1.47-12.05s-.47-2.35-1.54-2.35a4.4,4.4,0,0,0-2.62.67c0,.17.55.15.55,5.43,0,2.58-.25,8.66-.31,10.65C270.47,432.2,270.78,432.62,272.32,432.62Z" transform="translate(-248.51 -398.34)"/><path class="cls-1" d="M256.77,438.75c6.62,0,11.2-4.46,11.2-10.91,0-5.32-3.87-8.11-7.72-10.51-5.2-3.23-7.07-4.82-7.07-8.23A7.15,7.15,0,0,1,260,402a4.89,4.89,0,0,1,4.12,2c-2.18,2.58-3.71,5.61-3.71,8.18,0,1.9,1.08,2.59,2.17,2.59,2.63,0,5.79-3.78,5.79-7.95a6.62,6.62,0,0,0-1.22-3.95,11,11,0,0,1,6.59-2.32,18.31,18.31,0,0,1,1.88.17c.1,0,.13-.06.13-.27a2.16,2.16,0,0,0-2.36-2.05c-2.27,0-4.9,1.41-7.18,3.45a6.73,6.73,0,0,0-4.4-1.48c-5.92,0-10.87,4.22-10.87,10.45,0,5.72,3.64,8.1,7.33,10.42s7.05,4.63,7.05,8.93a7,7,0,0,1-7.17,7.16c-3.69,0-5.84-2.2-5.93-5.23-.14-4.18,2.81-6.78,5.67-6.78l.34,0s.06,0,.06-.08c0-.65-1-1.42-2.55-1.42a7.14,7.14,0,0,0-7.21,7.37C248.49,436.21,252.58,438.75,256.77,438.75ZM265,407.28c0,3.39-1.1,6.25-2.45,6.25-.52,0-1-.3-1-1.28a11.35,11.35,0,0,1,3.15-7A6.89,6.89,0,0,1,265,407.28Z" transform="translate(-248.51 -398.34)"/><path class="cls-1" d="M278.14,429.15c0,2.72.32,3.07,1.73,3.07,1,0,2.06-.38,2.06-.61a15.34,15.34,0,0,1-.29-3.51c0-5.32,2.24-15.27,4.88-15.27.75,0,.93.76.93,2.17,0,4.22-.82,8.89-.82,12.75,0,3.45.32,3.86,1.84,3.86,1,0,2.38-.47,2.38-.83,0-.18-.49-.33-.49-3.29,0-5.72,2.79-14.83,4.88-14.83.81,0,.86,1.07.86,2.58,0,2.46-.63,7.8-.63,12.6,0,3.22.83,3.89,2.35,3.89,1,0,2.17-.55,2.17-.88s-.8-.37-.8-2.93c0-6.5.64-10,.64-14.1,0-2.42-1.06-3.4-2.74-3.4-3.56,0-5.52,3.74-6.3,8.56h-.05c.09-1.5.34-2.91.35-4.87,0-2.35-1-3.54-3.12-3.54-1.5,0-4.59.61-6.12,8.47h-.08c0-1.78.2-3.19.2-5.51,0-1.83-.33-2.31-1.67-2.31a3.32,3.32,0,0,0-2.34.62c0,.23.47.32.47,5C278.45,419.89,278.19,424.85,278.14,429.15Z" transform="translate(-248.51 -398.34)"/><path class="cls-1" d="M345.34,410.8a1.41,1.41,0,0,1-1,.43,1.32,1.32,0,0,1-1-.43,1.4,1.4,0,0,1-.42-1,1.35,1.35,0,0,1,.42-1,1.37,1.37,0,0,1,1-.41,1.4,1.4,0,0,1,1,.41,1.38,1.38,0,0,1,.41,1A1.26,1.26,0,0,1,345.34,410.8Zm-1.88-1.88a1.26,1.26,0,0,0,0,1.74,1.19,1.19,0,0,0,.87.37,1.16,1.16,0,0,0,.87-.37,1.14,1.14,0,0,0,.35-.87,1.25,1.25,0,0,0-.35-.87,1.19,1.19,0,0,0-.87-.36A1.22,1.22,0,0,0,343.46,408.92Zm.84.08a1,1,0,0,1,.43.06.37.37,0,0,1,.24.4.31.31,0,0,1-.15.3,1,1,0,0,1-.23.08.41.41,0,0,1,.28.15.42.42,0,0,1,.09.24v.25a.24.24,0,0,0,0,.07l0,0h-.26v0h0v-.17a.39.39,0,0,0-.15-.36.62.62,0,0,0-.31-.05h-.21v.62h-.28V409h.52Zm.31.24a.77.77,0,0,0-.34-.06H344v.57h.25a1.43,1.43,0,0,0,.26,0,.26.26,0,0,0,.16-.25A.28.28,0,0,0,344.61,409.24Z" transform="translate(-248.51 -398.34)"/></svg>