<?xml version="1.0" encoding="utf-8"?>
<!-- Generator: Adobe Illustrator 25.2.3, SVG Export Plug-In . SVG Version: 6.00 Build 0)  -->
<svg version="1.1" id="Layer_1" xmlns="http://www.w3.org/2000/svg" xmlns:xlink="http://www.w3.org/1999/xlink" x="0px" y="0px"
	 viewBox="0 0 595.28 841.89" style="enable-background:new 0 0 595.28 841.89;" xml:space="preserve">
<style type="text/css">
	.st0{stroke:#231F20;stroke-width:4;stroke-linejoin:round;stroke-miterlimit:10;}
	.st1{fill:#FFFFFF;stroke:#231F20;stroke-width:4;stroke-linejoin:round;stroke-miterlimit:10;}
	.st2{fill:#FFFFFF;}
</style>
<g>
	<path class="st0" d="M206.07,315.69c0,5.21,3.75,13.95,5.6,13.95c0.56,0,0.9-0.28,1.06-1.23c0.95-6.61,3.75-17.2,11.04-21.74
		c0.39-0.22,1.4-0.78,1.4-1.34c0-0.62-1.63-1.85-5.32-1.85C210.5,303.42,206.07,308.01,206.07,315.69"/>
	<path class="st0" d="M463.85,507.85c-1.18,0-1.46,0.22-1.46,0.78c-0.28,11.88-4.26,19.89-11.26,19.89
		c-7.62,0-10.54-7.85-10.82-25.83c0.11,0,0.17,0,0.28,0c17.71,0,32.17-10.76,32.17-30.93c0-10.87-5.94-19.05-17.82-19.05
		c-17.48,0-27.35,15.52-27.35,45.28c0,22.36,5.49,34.91,21.97,34.91c10.82,0,20.51-7.62,20.51-18.04
		C470.13,509.76,467.78,507.85,463.85,507.85 M455.11,457.08c4.43,0,5.77,4.37,5.55,11.94c-0.45,18.27-6.16,29.76-19.5,29.76
		c-0.28,0-0.5-0.06-0.78-0.11C440.6,467.84,448.27,457.08,455.11,457.08"/>
	<path class="st0" d="M405.35,449.74c-20.57-0.22-35.92,17.15-35.92,50.04c0,17.82,3.92,28.97,15.35,28.97
		c8.13,0,17.48-8.46,19.67-31.33h0.34c-0.06,9.47,0.5,20.51,0.5,30.43c0,20.73-6,31.66-18.89,31.66c-14.4,0-16.76-16.59-15.52-25.72
		c0-0.45-0.17-0.67-0.84-0.67c-3.98,0-9.08,2.63-9.08,11.21c0,12.22,10.48,19.67,24.15,19.67c21.35,0,31.83-17.88,31.83-43.54
		c0-8.57-0.73-15.35-0.73-20.73c0-8.41,0.78-17.93,0.78-21.46c0-5.88-2.02-8.52-7.29-8.52c-4.71,0-7.12,1.85-7.06,2.24
		c0,0.06,0.17,2.02,0.17,6.89c0,21.01-7.45,42.76-14.18,42.76c-3.87,0-5.88-7.17-5.88-19.56c0-32.22,8.63-47.86,21.41-47.86
		c5.1,0,7.85,4.15,7.85,10.59c0,0.5,0.11,0.67,0.5,0.67c3.64,0,6.39-2.91,6.39-6.16C418.97,454.44,413.75,449.85,405.35,449.74"/>
	<path class="st0" d="M463.91,422.45c2.35-6.95,3.53-15.13,3.53-24.27c0-5.49-1.46-28.8-1.46-33.23c0-17.76,0.39-23.2,1.29-26.34
		c0-0.95-6.33-3.64-9.41-3.64c-4.09,0-4.65,2.24-4.65,6.72c0.34,20.06-7.68,57.72-16.7,57.72c-1.18,0-2.86-0.78-2.86-5.04
		c0-7.06,0.28-31.49,0.28-43.88c0-11.43-1.29-16.53-8.85-16.53c-4.65,0-7.51,1.68-7.57,2.35l0.11,0.22
		c6.28,13.95-3.25,62.2-12.44,62.2c-2.63,0-4.26-2.41-4.26-14.51c0-32.9,4.43-56.88,4.43-80.08c0-11.26-2.47-12.5-8.13-12.5
		c-4.37,0-7.96,1.96-7.96,2.41c0,0.9,2.86,1.74,2.86,18.04c0,6.78-0.34,13.51-0.78,20.23c-1.74,12.83-8.35,21.69-16.25,29.59
		c0.06-1.18,0.11-2.41,0.11-3.64c0-20.17-3.75-29.98-14.12-29.98c-10.98,0-18.83,15.64-21.8,32.95h-0.5
		c0.45-7.06,1.63-17.54,1.63-23.65c0-6.72-1.57-8.52-6.5-8.52c-5.27,0-9.02,1.79-9.02,2.3c0,1.01,1.74,1.23,1.74,17.93
		c0,31.44-2.35,47.91-2.35,77.28c0,10.31,1.74,14.4,7.96,14.4c3.81,0,7.73-1.96,7.73-3.03c0-0.56-3.08-3.36-3.08-26.9
		c0-41.64,12.1-74.59,20.23-74.59c3.31,0,4.88,3.98,4.88,16.48c0,8.29-0.34,15.24-0.9,21.07c-9.81,8.29-18.33,15.41-18.33,24.15
		c0,5.49,3.36,8.41,8.41,8.41c10.65,0,21.35-14.4,23.59-38.72c6.39-6,12.27-12.66,15.41-20.17c-1.12,13.23-2.35,26.23-2.35,38.72
		c0,13.95,3.42,20.34,11.49,20.34c11.94,0,20.45-17.65,22.08-40.24l0.17,0.11c-0.17,9.36-0.45,23.59-0.45,26.79
		c0,10.54,3.53,13.95,9.58,13.95c11.82,0,21.24-15.64,22.92-37.38c0.5,5.83,1.68,20.73,1.68,37.21c0,4.15-0.22,7.9-0.67,11.38
		c-5.94-1.91-12.27-3.08-18.38-3.08c-15.75,0-27.35,4.43-27.35,14.91c0,10.65,12.55,15.3,24.43,15.3c14.18,0,23.65-7.23,28.97-19.11
		c8.46,6.05,14.51,15.07,16.2,23.59c0.06,0.17,0.22,0.22,0.5,0.22c2.58-0.06,5.04-2.35,5.04-6.67
		C484.03,436.51,475.51,428.16,463.91,422.45 M349.87,401.99c-1.34,0-2.75-0.56-2.75-3.42c0-5.72,5.72-11.54,13.11-17.99
		C357.66,397.79,352.73,401.99,349.87,401.99 M433.42,441.89c-7.17,0-12.27-3.98-12.27-10.26c0-7.85,6.89-12.05,17.15-12.22
		c5.38-0.11,10.7,0.95,15.69,3.08C451.36,435,445.02,441.89,433.42,441.89"/>
	<path class="st0" d="M211.45,409.84c3.81,0,8.29-1.68,8.29-2.91c0-0.45-2.41-1.06-2.41-19.89c0-18.04,1.74-37.1,1.74-44.27
		c0-7.29-1.74-8.63-5.66-8.63c-5.44,0-9.64,2.02-9.64,2.47c0,0.62,2.02,0.56,2.02,19.95c0,9.47-0.9,31.83-1.12,39.12
		C204.67,408.32,205.79,409.84,211.45,409.84"/>
	<path class="st0" d="M266.48,438.42c0.95,0,2.13,0.11,2.13,0.11c0.56-0.06,0.62-0.22,0.62-0.73c0-5.27-2.35-8.85-8.85-8.85
		c-17.37,0-31.16,33.01-34.8,60.52h-0.22c0.06-4.48,0.17-10.37,0.34-13c0.28-5.44,0.62-10.93,0.62-13.56c0-4.65-0.84-7.06-4.65-7.06
		c-4.82,0-9.92,2.13-9.92,3.19c0.06,7.96-4.99,27.46-14.23,39.56c0.11-2.07,0.17-4.09,0.17-6.16c0-29.03-10.76-53.91-29.14-53.91
		c-17.09,0-27.68,21.52-27.68,44.44c0,23.48,11.99,34.07,27.01,34.07c5.38,0,10.26-1.12,14.63-2.97
		c-1.96,24.88-9.53,42.65-25.16,42.65c-15.41,0-25.39-18.77-25.39-57.5c0-27.68,6.95-42.65,12.16-50.6
		c0.17-0.28,0.67-1.01,0.67-1.23c0-0.28-0.45-0.34-0.73-0.34c-2.91,0-26.9,19.33-26.9,60.97c0,31.27,15.86,53.91,36.43,53.91
		c24.43,0,40.12-26.79,43.49-57.1c9.19-9.02,15.02-24.32,16.87-35.02c0.28,4.99,0.5,12.16,0.5,22.58c0,11.94-0.17,19.67-0.34,24.15
		c0,12.67,0.95,14.18,6.61,14.18c3.81,0,8.41-1.79,8.41-3.03c0-1.46-1.96-1.74-1.96-19.78
		C227.98,485.21,238.24,438.42,266.48,438.42 M177.71,509.31c-16.25,0-27.12-10.93-27.12-36.99c0-16.64,5.21-29.03,14.91-29.03
		c12.44,0,17.54,17.88,17.54,56.82c0,2.91-0.06,5.77-0.17,8.57C181.19,509.08,179.45,509.31,177.71,509.31"/>
	<path class="st0" d="M348.92,450.07c-6,0-19.61,3.92-25.61,39.45h-0.17c0.22-8.24,0.95-21.18,0.95-28.58
		c0-6.72-1.01-8.52-5.88-8.52c-2.97,0-8.01,1.79-8.01,2.3c-0.56,26.28-10.09,64.61-17.76,64.61c-1.63,0-2.86-2.3-2.86-7.57
		c0-12.1,1.46-28.47,1.46-33.62c0-6.61-0.56-10.37-6.72-10.37c-4.65,0-7.34,1.85-7.34,2.24c0.95,21.52-6.95,51.72-13.67,51.72
		c-3.36,0-5.88-7.17-5.88-19.56c0-32.17,8.63-49.93,21.41-49.93c5.1,0,7.85,4.15,7.85,10.59c0,0.5,0.11,0.67,0.5,0.67
		c3.64,0,6.39-2.91,6.39-6.16c0-4.93-5.21-9.64-13.62-9.64c-20.57,0-35.92,19.22-35.92,52.12c0,17.82,3.92,28.92,15.35,28.92
		c6.89,0,15.13-6.56,18.55-30.37h0.34c-0.39,5.44-0.78,10.59-0.78,11.32c0,11.71,2.3,18.89,9.58,18.89
		c13.79,0,23.48-30.15,25.39-57.55h0.34c0.11,2.97,0.17,6.44,0.17,10.59c0,10.87-1.12,23.99-1.12,40.57c0,4.26,0.78,6.11,4.54,6.11
		c4.88,0,8.91-1.57,8.91-2.47c0-0.39-0.9-1.91-0.9-11.66c0-22.3,9.47-55.98,19.17-55.98c2.75,0,3.42,2.86,3.42,7.96
		c0,15.47-3.03,34.13-3.03,48.31c0,12.61,0.95,14.18,6.56,14.18c3.81,0,8.74-1.74,8.74-3.03c0-0.67-2.3-1.63-2.3-12.1
		c0-14.57,3.14-36.99,3.14-50.44C360.12,454.73,356.59,450.07,348.92,450.07 M310.92,455.62l-0.5-0.56
		C310.58,455.17,310.75,455.29,310.92,455.62"/>
	<path class="st0" d="M154.35,432.37c24.32,0,41.13-16.36,41.13-40.07c0-19.56-14.23-29.81-28.36-38.61
		c-19.11-11.88-26-17.71-26-30.26c0-16.08,13.84-26.17,24.99-26.17c6.28,0,11.94,2.58,15.13,7.23
		c-8.01,9.47-13.62,20.62-13.62,30.04c0,7,3.98,9.53,7.96,9.53c9.69,0,21.3-13.9,21.3-29.2c0-5.55-1.57-10.54-4.48-14.51
		c7.45-5.6,15.86-8.52,24.21-8.52c3.36,0,6,0.62,6.89,0.62c0.39,0,0.5-0.22,0.5-1.01c0-4.48-3.87-7.51-8.69-7.51
		c-8.35,0-17.99,5.16-26.39,12.67c-4.09-3.42-9.53-5.44-16.14-5.44c-21.74,0-39.96,15.52-39.96,38.39
		c0,21.01,13.39,29.76,26.96,38.28c13.28,8.29,25.89,17.04,25.89,32.84c0,15.58-11.66,26.28-26.34,26.28
		c-13.56,0-21.46-8.07-21.8-19.22c-0.5-15.35,10.31-24.88,20.85-24.88c0.39,0,1.01,0.06,1.23,0.06c0.17,0,0.22-0.11,0.22-0.28
		c0-2.41-3.75-5.21-9.36-5.21c-13,0-26.51,9.64-26.51,27.07C123.92,423.06,138.93,432.37,154.35,432.37 M184.61,316.76
		c0,12.44-4.03,22.98-9.02,22.98c-1.91,0-3.64-1.12-3.64-4.71c0-8.52,4.6-17.99,11.54-25.89
		C184.21,311.38,184.61,313.9,184.61,316.76"/>
	<path class="st0" d="M232.86,397.12c0.11,9.98,1.18,11.26,6.33,11.26c3.81,0,7.57-1.4,7.57-2.24c0-0.39-1.06-3.59-1.06-12.89
		c0-19.56,8.24-56.1,17.93-56.1c2.75,0,3.42,2.8,3.42,7.96c0,15.52-3.03,32.67-3.03,46.85c0,12.67,1.18,14.18,6.78,14.18
		c3.81,0,8.74-1.74,8.74-3.03c0-0.67-1.79-1.23-1.79-12.1c0-21.01,10.26-54.47,17.93-54.47c2.97,0,3.14,3.92,3.14,9.47
		c0,9.02-2.3,28.64-2.3,46.29c0,11.82,3.03,14.29,8.63,14.29c3.81,0,7.96-2.02,7.96-3.25c0-0.95-2.91-1.34-2.91-10.76
		c0-23.87,2.35-36.87,2.35-51.78c0-8.91-3.92-12.5-10.09-12.5c-13.06,0-20.29,13.73-23.14,31.44h-0.17
		c0.34-5.49,1.23-10.7,1.29-17.88c0-8.63-3.75-13-11.49-13c-5.49,0-16.87,2.24-22.47,31.1h-0.28c0.06-6.56,0.73-11.71,0.73-20.23
		c0-6.72-1.23-8.52-6.16-8.52c-5.27,0-8.57,1.79-8.57,2.3c0,0.84,1.74,1.18,1.74,18.49C233.98,363.1,233.03,381.31,232.86,397.12"/>
</g>
<g>
	<path class="st1" d="M201.07,309.69c0,5.21,3.75,13.95,5.6,13.95c0.56,0,0.9-0.28,1.06-1.23c0.95-6.61,3.75-17.2,11.04-21.74
		c0.39-0.22,1.4-0.78,1.4-1.34c0-0.62-1.63-1.85-5.32-1.85C205.5,297.42,201.07,302.01,201.07,309.69"/>
	<path class="st1" d="M458.85,501.85c-1.18,0-1.46,0.22-1.46,0.78c-0.28,11.88-4.26,19.89-11.26,19.89
		c-7.62,0-10.54-7.85-10.82-25.83c0.11,0,0.17,0,0.28,0c17.71,0,32.17-10.76,32.17-30.93c0-10.87-5.94-19.05-17.82-19.05
		c-17.48,0-27.35,15.52-27.35,45.28c0,22.36,5.49,34.91,21.97,34.91c10.82,0,20.51-7.62,20.51-18.04
		C465.13,503.76,462.78,501.85,458.85,501.85 M450.11,451.08c4.43,0,5.77,4.37,5.55,11.94c-0.45,18.27-6.16,29.76-19.5,29.76
		c-0.28,0-0.5-0.06-0.78-0.11C435.6,461.84,443.27,451.08,450.11,451.08"/>
	<path class="st1" d="M400.35,443.74c-20.57-0.22-35.92,17.15-35.92,50.04c0,17.82,3.92,28.97,15.35,28.97
		c8.13,0,17.48-8.46,19.67-31.33h0.34c-0.06,9.47,0.5,20.51,0.5,30.43c0,20.73-6,31.66-18.89,31.66c-14.4,0-16.76-16.59-15.52-25.72
		c0-0.45-0.17-0.67-0.84-0.67c-3.98,0-9.08,2.63-9.08,11.21c0,12.22,10.48,19.67,24.15,19.67c21.35,0,31.83-17.88,31.83-43.54
		c0-8.57-0.73-15.35-0.73-20.73c0-8.41,0.78-17.93,0.78-21.46c0-5.88-2.02-8.52-7.29-8.52c-4.71,0-7.12,1.85-7.06,2.24
		c0,0.06,0.17,2.02,0.17,6.89c0,21.01-7.45,42.76-14.18,42.76c-3.87,0-5.88-7.17-5.88-19.56c0-32.22,8.63-47.86,21.41-47.86
		c5.1,0,7.85,4.15,7.85,10.59c0,0.5,0.11,0.67,0.5,0.67c3.64,0,6.39-2.91,6.39-6.16C413.97,448.44,408.75,443.85,400.35,443.74"/>
	<path class="st1" d="M458.91,416.45c2.35-6.95,3.53-15.13,3.53-24.27c0-5.49-1.46-28.8-1.46-33.23c0-17.76,0.39-23.2,1.29-26.34
		c0-0.95-6.33-3.64-9.41-3.64c-4.09,0-4.65,2.24-4.65,6.72c0.34,20.06-7.68,57.72-16.7,57.72c-1.18,0-2.86-0.78-2.86-5.04
		c0-7.06,0.28-31.49,0.28-43.88c0-11.43-1.29-16.53-8.85-16.53c-4.65,0-7.51,1.68-7.57,2.35l0.11,0.22
		c6.28,13.95-3.25,62.2-12.44,62.2c-2.63,0-4.26-2.41-4.26-14.51c0-32.9,4.43-56.88,4.43-80.08c0-11.26-2.47-12.5-8.13-12.5
		c-4.37,0-7.96,1.96-7.96,2.41c0,0.9,2.86,1.74,2.86,18.04c0,6.78-0.34,13.51-0.78,20.23c-1.74,12.83-8.35,21.69-16.25,29.59
		c0.06-1.18,0.11-2.41,0.11-3.64c0-20.17-3.75-29.98-14.12-29.98c-10.98,0-18.83,15.64-21.8,32.95h-0.5
		c0.45-7.06,1.63-17.54,1.63-23.65c0-6.72-1.57-8.52-6.5-8.52c-5.27,0-9.02,1.79-9.02,2.3c0,1.01,1.74,1.23,1.74,17.93
		c0,31.44-2.35,47.91-2.35,77.28c0,10.31,1.74,14.4,7.96,14.4c3.81,0,7.73-1.96,7.73-3.03c0-0.56-3.08-3.36-3.08-26.9
		c0-41.64,12.1-74.59,20.23-74.59c3.31,0,4.88,3.98,4.88,16.48c0,8.29-0.34,15.24-0.9,21.07c-9.81,8.29-18.33,15.41-18.33,24.15
		c0,5.49,3.36,8.41,8.41,8.41c10.65,0,21.35-14.4,23.59-38.72c6.39-6,12.27-12.66,15.41-20.17c-1.12,13.23-2.35,26.23-2.35,38.72
		c0,13.95,3.42,20.34,11.49,20.34c11.94,0,20.45-17.65,22.08-40.24l0.17,0.11c-0.17,9.36-0.45,23.59-0.45,26.79
		c0,10.54,3.53,13.95,9.58,13.95c11.82,0,21.24-15.64,22.92-37.38c0.5,5.83,1.68,20.73,1.68,37.21c0,4.15-0.22,7.9-0.67,11.38
		c-5.94-1.91-12.27-3.08-18.38-3.08c-15.75,0-27.35,4.43-27.35,14.91c0,10.65,12.55,15.3,24.43,15.3c14.18,0,23.65-7.23,28.97-19.11
		c8.46,6.05,14.51,15.07,16.2,23.59c0.06,0.17,0.22,0.22,0.5,0.22c2.58-0.06,5.04-2.35,5.04-6.67
		C479.03,430.51,470.51,422.16,458.91,416.45 M344.87,395.99c-1.34,0-2.75-0.56-2.75-3.42c0-5.72,5.72-11.54,13.11-17.99
		C352.66,391.79,347.73,395.99,344.87,395.99 M428.42,435.89c-7.17,0-12.27-3.98-12.27-10.26c0-7.85,6.89-12.05,17.15-12.22
		c5.38-0.11,10.7,0.95,15.69,3.08C446.36,429,440.02,435.89,428.42,435.89"/>
	<path class="st1" d="M206.45,403.84c3.81,0,8.29-1.68,8.29-2.91c0-0.45-2.41-1.06-2.41-19.89c0-18.04,1.74-37.1,1.74-44.27
		c0-7.29-1.74-8.63-5.66-8.63c-5.44,0-9.64,2.02-9.64,2.47c0,0.62,2.02,0.56,2.02,19.95c0,9.47-0.9,31.83-1.12,39.12
		C199.67,402.32,200.79,403.84,206.45,403.84"/>
	<path class="st1" d="M261.48,432.42c0.95,0,2.13,0.11,2.13,0.11c0.56-0.06,0.62-0.22,0.62-0.73c0-5.27-2.35-8.85-8.85-8.85
		c-17.37,0-31.16,33.01-34.8,60.52h-0.22c0.06-4.48,0.17-10.37,0.34-13c0.28-5.44,0.62-10.93,0.62-13.56c0-4.65-0.84-7.06-4.65-7.06
		c-4.82,0-9.92,2.13-9.92,3.19c0.06,7.96-4.99,27.46-14.23,39.56c0.11-2.07,0.17-4.09,0.17-6.16c0-29.03-10.76-53.91-29.14-53.91
		c-17.09,0-27.68,21.52-27.68,44.44c0,23.48,11.99,34.07,27.01,34.07c5.38,0,10.26-1.12,14.63-2.97
		c-1.96,24.88-9.53,42.65-25.16,42.65c-15.41,0-25.39-18.77-25.39-57.5c0-27.68,6.95-42.65,12.16-50.6
		c0.17-0.28,0.67-1.01,0.67-1.23c0-0.28-0.45-0.34-0.73-0.34c-2.91,0-26.9,19.33-26.9,60.97c0,31.27,15.86,53.91,36.43,53.91
		c24.43,0,40.12-26.79,43.49-57.1c9.19-9.02,15.02-24.32,16.87-35.02c0.28,4.99,0.5,12.16,0.5,22.58c0,11.94-0.17,19.67-0.34,24.15
		c0,12.67,0.95,14.18,6.61,14.18c3.81,0,8.41-1.79,8.41-3.03c0-1.46-1.96-1.74-1.96-19.78
		C222.98,479.21,233.24,432.42,261.48,432.42 M172.71,503.31c-16.25,0-27.12-10.93-27.12-36.99c0-16.64,5.21-29.03,14.91-29.03
		c12.44,0,17.54,17.88,17.54,56.82c0,2.91-0.06,5.77-0.17,8.57C176.19,503.08,174.45,503.31,172.71,503.31"/>
	<path class="st1" d="M343.92,444.07c-6,0-19.61,3.92-25.61,39.45h-0.17c0.22-8.24,0.95-21.18,0.95-28.58
		c0-6.72-1.01-8.52-5.88-8.52c-2.97,0-8.01,1.79-8.01,2.3c-0.56,26.28-10.09,64.61-17.76,64.61c-1.63,0-2.86-2.3-2.86-7.57
		c0-12.1,1.46-28.47,1.46-33.62c0-6.61-0.56-10.37-6.72-10.37c-4.65,0-7.34,1.85-7.34,2.24c0.95,21.52-6.95,51.72-13.67,51.72
		c-3.36,0-5.88-7.17-5.88-19.56c0-32.17,8.63-49.93,21.41-49.93c5.1,0,7.85,4.15,7.85,10.59c0,0.5,0.11,0.67,0.5,0.67
		c3.64,0,6.39-2.91,6.39-6.16c0-4.93-5.21-9.64-13.62-9.64c-20.57,0-35.92,19.22-35.92,52.12c0,17.82,3.92,28.92,15.35,28.92
		c6.89,0,15.13-6.56,18.55-30.37h0.34c-0.39,5.44-0.78,10.59-0.78,11.32c0,11.71,2.3,18.89,9.58,18.89
		c13.79,0,23.48-30.15,25.39-57.55h0.34c0.11,2.97,0.17,6.44,0.17,10.59c0,10.87-1.12,23.99-1.12,40.57c0,4.26,0.78,6.11,4.54,6.11
		c4.88,0,8.91-1.57,8.91-2.47c0-0.39-0.9-1.91-0.9-11.66c0-22.3,9.47-55.98,19.17-55.98c2.75,0,3.42,2.86,3.42,7.96
		c0,15.47-3.03,34.13-3.03,48.31c0,12.61,0.95,14.18,6.56,14.18c3.81,0,8.74-1.74,8.74-3.03c0-0.67-2.3-1.63-2.3-12.1
		c0-14.57,3.14-36.99,3.14-50.44C355.12,448.73,351.59,444.07,343.92,444.07 M305.92,449.62l-0.5-0.56
		C305.58,449.17,305.75,449.29,305.92,449.62"/>
	<path class="st1" d="M149.35,426.37c24.32,0,41.13-16.36,41.13-40.07c0-19.56-14.23-29.81-28.36-38.61
		c-19.11-11.88-26-17.71-26-30.26c0-16.08,13.84-26.17,24.99-26.17c6.28,0,11.94,2.58,15.13,7.23
		c-8.01,9.47-13.62,20.62-13.62,30.04c0,7,3.98,9.53,7.96,9.53c9.69,0,21.3-13.9,21.3-29.2c0-5.55-1.57-10.54-4.48-14.51
		c7.45-5.6,15.86-8.52,24.21-8.52c3.36,0,6,0.62,6.89,0.62c0.39,0,0.5-0.22,0.5-1.01c0-4.48-3.87-7.51-8.69-7.51
		c-8.35,0-17.99,5.16-26.39,12.67c-4.09-3.42-9.53-5.44-16.14-5.44c-21.74,0-39.96,15.52-39.96,38.39
		c0,21.01,13.39,29.76,26.96,38.28c13.28,8.29,25.89,17.04,25.89,32.84c0,15.58-11.66,26.28-26.34,26.28
		c-13.56,0-21.46-8.07-21.8-19.22c-0.5-15.35,10.31-24.88,20.85-24.88c0.39,0,1.01,0.06,1.23,0.06c0.17,0,0.22-0.11,0.22-0.28
		c0-2.41-3.75-5.21-9.36-5.21c-13,0-26.51,9.64-26.51,27.07C118.92,417.06,133.93,426.37,149.35,426.37 M179.61,310.76
		c0,12.44-4.03,22.98-9.02,22.98c-1.91,0-3.64-1.12-3.64-4.71c0-8.52,4.6-17.99,11.54-25.89
		C179.21,305.38,179.61,307.9,179.61,310.76"/>
	<path class="st1" d="M227.86,391.12c0.11,9.98,1.18,11.26,6.33,11.26c3.81,0,7.57-1.4,7.57-2.24c0-0.39-1.06-3.59-1.06-12.89
		c0-19.56,8.24-56.1,17.93-56.1c2.75,0,3.42,2.8,3.42,7.96c0,15.52-3.03,32.67-3.03,46.85c0,12.67,1.18,14.18,6.78,14.18
		c3.81,0,8.74-1.74,8.74-3.03c0-0.67-1.79-1.23-1.79-12.1c0-21.01,10.26-54.47,17.93-54.47c2.97,0,3.14,3.92,3.14,9.47
		c0,9.02-2.3,28.64-2.3,46.29c0,11.82,3.03,14.29,8.63,14.29c3.81,0,7.96-2.02,7.96-3.25c0-0.95-2.91-1.34-2.91-10.76
		c0-23.87,2.35-36.87,2.35-51.78c0-8.91-3.92-12.5-10.09-12.5c-13.06,0-20.29,13.73-23.14,31.44h-0.17
		c0.34-5.49,1.23-10.7,1.29-17.88c0-8.63-3.75-13-11.49-13c-5.49,0-16.87,2.24-22.47,31.1h-0.28c0.06-6.56,0.73-11.71,0.73-20.23
		c0-6.72-1.23-8.52-6.16-8.52c-5.27,0-8.57,1.79-8.57,2.3c0,0.84,1.74,1.18,1.74,18.49C228.98,357.1,228.03,375.31,227.86,391.12"/>
</g>
<g>
	<path class="st2" d="M201.07,309.69c0,5.21,3.75,13.95,5.6,13.95c0.56,0,0.9-0.28,1.06-1.23c0.95-6.61,3.75-17.2,11.04-21.74
		c0.39-0.22,1.4-0.78,1.4-1.34c0-0.62-1.63-1.85-5.32-1.85C205.5,297.42,201.07,302.01,201.07,309.69"/>
	<path class="st2" d="M458.85,501.85c-1.18,0-1.46,0.22-1.46,0.78c-0.28,11.88-4.26,19.89-11.26,19.89
		c-7.62,0-10.54-7.85-10.82-25.83c0.11,0,0.17,0,0.28,0c17.71,0,32.17-10.76,32.17-30.93c0-10.87-5.94-19.05-17.82-19.05
		c-17.48,0-27.35,15.52-27.35,45.28c0,22.36,5.49,34.91,21.97,34.91c10.82,0,20.51-7.62,20.51-18.04
		C465.13,503.76,462.78,501.85,458.85,501.85 M450.11,451.08c4.43,0,5.77,4.37,5.55,11.94c-0.45,18.27-6.16,29.76-19.5,29.76
		c-0.28,0-0.5-0.06-0.78-0.11C435.6,461.84,443.27,451.08,450.11,451.08"/>
	<path class="st2" d="M400.35,443.74c-20.57-0.22-35.92,17.15-35.92,50.04c0,17.82,3.92,28.97,15.35,28.97
		c8.13,0,17.48-8.46,19.67-31.33h0.34c-0.06,9.47,0.5,20.51,0.5,30.43c0,20.73-6,31.66-18.89,31.66c-14.4,0-16.76-16.59-15.52-25.72
		c0-0.45-0.17-0.67-0.84-0.67c-3.98,0-9.08,2.63-9.08,11.21c0,12.22,10.48,19.67,24.15,19.67c21.35,0,31.83-17.88,31.83-43.54
		c0-8.57-0.73-15.35-0.73-20.73c0-8.41,0.78-17.93,0.78-21.46c0-5.88-2.02-8.52-7.29-8.52c-4.71,0-7.12,1.85-7.06,2.24
		c0,0.06,0.17,2.02,0.17,6.89c0,21.01-7.45,42.76-14.18,42.76c-3.87,0-5.88-7.17-5.88-19.56c0-32.22,8.63-47.86,21.41-47.86
		c5.1,0,7.85,4.15,7.85,10.59c0,0.5,0.11,0.67,0.5,0.67c3.64,0,6.39-2.91,6.39-6.16C413.97,448.44,408.75,443.85,400.35,443.74"/>
	<path class="st2" d="M458.91,416.45c2.35-6.95,3.53-15.13,3.53-24.27c0-5.49-1.46-28.8-1.46-33.23c0-17.76,0.39-23.2,1.29-26.34
		c0-0.95-6.33-3.64-9.41-3.64c-4.09,0-4.65,2.24-4.65,6.72c0.34,20.06-7.68,57.72-16.7,57.72c-1.18,0-2.86-0.78-2.86-5.04
		c0-7.06,0.28-31.49,0.28-43.88c0-11.43-1.29-16.53-8.85-16.53c-4.65,0-7.51,1.68-7.57,2.35l0.11,0.22
		c6.28,13.95-3.25,62.2-12.44,62.2c-2.63,0-4.26-2.41-4.26-14.51c0-32.9,4.43-56.88,4.43-80.08c0-11.26-2.47-12.5-8.13-12.5
		c-4.37,0-7.96,1.96-7.96,2.41c0,0.9,2.86,1.74,2.86,18.04c0,6.78-0.34,13.51-0.78,20.23c-1.74,12.83-8.35,21.69-16.25,29.59
		c0.06-1.18,0.11-2.41,0.11-3.64c0-20.17-3.75-29.98-14.12-29.98c-10.98,0-18.83,15.64-21.8,32.95h-0.5
		c0.45-7.06,1.63-17.54,1.63-23.65c0-6.72-1.57-8.52-6.5-8.52c-5.27,0-9.02,1.79-9.02,2.3c0,1.01,1.74,1.23,1.74,17.93
		c0,31.44-2.35,47.91-2.35,77.28c0,10.31,1.74,14.4,7.96,14.4c3.81,0,7.73-1.96,7.73-3.03c0-0.56-3.08-3.36-3.08-26.9
		c0-41.64,12.1-74.59,20.23-74.59c3.31,0,4.88,3.98,4.88,16.48c0,8.29-0.34,15.24-0.9,21.07c-9.81,8.29-18.33,15.41-18.33,24.15
		c0,5.49,3.36,8.41,8.41,8.41c10.65,0,21.35-14.4,23.59-38.72c6.39-6,12.27-12.66,15.41-20.17c-1.12,13.23-2.35,26.23-2.35,38.72
		c0,13.95,3.42,20.34,11.49,20.34c11.94,0,20.45-17.65,22.08-40.24l0.17,0.11c-0.17,9.36-0.45,23.59-0.45,26.79
		c0,10.54,3.53,13.95,9.58,13.95c11.82,0,21.24-15.64,22.92-37.38c0.5,5.83,1.68,20.73,1.68,37.21c0,4.15-0.22,7.9-0.67,11.38
		c-5.94-1.91-12.27-3.08-18.38-3.08c-15.75,0-27.35,4.43-27.35,14.91c0,10.65,12.55,15.3,24.43,15.3c14.18,0,23.65-7.23,28.97-19.11
		c8.46,6.05,14.51,15.07,16.2,23.59c0.06,0.17,0.22,0.22,0.5,0.22c2.58-0.06,5.04-2.35,5.04-6.67
		C479.03,430.51,470.51,422.16,458.91,416.45 M344.87,395.99c-1.34,0-2.75-0.56-2.75-3.42c0-5.72,5.72-11.54,13.11-17.99
		C352.66,391.79,347.73,395.99,344.87,395.99 M428.42,435.89c-7.17,0-12.27-3.98-12.27-10.26c0-7.85,6.89-12.05,17.15-12.22
		c5.38-0.11,10.7,0.95,15.69,3.08C446.36,429,440.02,435.89,428.42,435.89"/>
	<path class="st2" d="M206.45,403.84c3.81,0,8.29-1.68,8.29-2.91c0-0.45-2.41-1.06-2.41-19.89c0-18.04,1.74-37.1,1.74-44.27
		c0-7.29-1.74-8.63-5.66-8.63c-5.44,0-9.64,2.02-9.64,2.47c0,0.62,2.02,0.56,2.02,19.95c0,9.47-0.9,31.83-1.12,39.12
		C199.67,402.32,200.79,403.84,206.45,403.84"/>
	<path class="st2" d="M261.48,432.42c0.95,0,2.13,0.11,2.13,0.11c0.56-0.06,0.62-0.22,0.62-0.73c0-5.27-2.35-8.85-8.85-8.85
		c-17.37,0-31.16,33.01-34.8,60.52h-0.22c0.06-4.48,0.17-10.37,0.34-13c0.28-5.44,0.62-10.93,0.62-13.56c0-4.65-0.84-7.06-4.65-7.06
		c-4.82,0-9.92,2.13-9.92,3.19c0.06,7.96-4.99,27.46-14.23,39.56c0.11-2.07,0.17-4.09,0.17-6.16c0-29.03-10.76-53.91-29.14-53.91
		c-17.09,0-27.68,21.52-27.68,44.44c0,23.48,11.99,34.07,27.01,34.07c5.38,0,10.26-1.12,14.63-2.97
		c-1.96,24.88-9.53,42.65-25.16,42.65c-15.41,0-25.39-18.77-25.39-57.5c0-27.68,6.95-42.65,12.16-50.6
		c0.17-0.28,0.67-1.01,0.67-1.23c0-0.28-0.45-0.34-0.73-0.34c-2.91,0-26.9,19.33-26.9,60.97c0,31.27,15.86,53.91,36.43,53.91
		c24.43,0,40.12-26.79,43.49-57.1c9.19-9.02,15.02-24.32,16.87-35.02c0.28,4.99,0.5,12.16,0.5,22.58c0,11.94-0.17,19.67-0.34,24.15
		c0,12.67,0.95,14.18,6.61,14.18c3.81,0,8.41-1.79,8.41-3.03c0-1.46-1.96-1.74-1.96-19.78
		C222.98,479.21,233.24,432.42,261.48,432.42 M172.71,503.31c-16.25,0-27.12-10.93-27.12-36.99c0-16.64,5.21-29.03,14.91-29.03
		c12.44,0,17.54,17.88,17.54,56.82c0,2.91-0.06,5.77-0.17,8.57C176.19,503.08,174.45,503.31,172.71,503.31"/>
	<path class="st2" d="M343.92,444.07c-6,0-19.61,3.92-25.61,39.45h-0.17c0.22-8.24,0.95-21.18,0.95-28.58
		c0-6.72-1.01-8.52-5.88-8.52c-2.97,0-8.01,1.79-8.01,2.3c-0.56,26.28-10.09,64.61-17.76,64.61c-1.63,0-2.86-2.3-2.86-7.57
		c0-12.1,1.46-28.47,1.46-33.62c0-6.61-0.56-10.37-6.72-10.37c-4.65,0-7.34,1.85-7.34,2.24c0.95,21.52-6.95,51.72-13.67,51.72
		c-3.36,0-5.88-7.17-5.88-19.56c0-32.17,8.63-49.93,21.41-49.93c5.1,0,7.85,4.15,7.85,10.59c0,0.5,0.11,0.67,0.5,0.67
		c3.64,0,6.39-2.91,6.39-6.16c0-4.93-5.21-9.64-13.62-9.64c-20.57,0-35.92,19.22-35.92,52.12c0,17.82,3.92,28.92,15.35,28.92
		c6.89,0,15.13-6.56,18.55-30.37h0.34c-0.39,5.44-0.78,10.59-0.78,11.32c0,11.71,2.3,18.89,9.58,18.89
		c13.79,0,23.48-30.15,25.39-57.55h0.34c0.11,2.97,0.17,6.44,0.17,10.59c0,10.87-1.12,23.99-1.12,40.57c0,4.26,0.78,6.11,4.54,6.11
		c4.88,0,8.91-1.57,8.91-2.47c0-0.39-0.9-1.91-0.9-11.66c0-22.3,9.47-55.98,19.17-55.98c2.75,0,3.42,2.86,3.42,7.96
		c0,15.47-3.03,34.13-3.03,48.31c0,12.61,0.95,14.18,6.56,14.18c3.81,0,8.74-1.74,8.74-3.03c0-0.67-2.3-1.63-2.3-12.1
		c0-14.57,3.14-36.99,3.14-50.44C355.12,448.73,351.59,444.07,343.92,444.07 M305.92,449.62l-0.5-0.56
		C305.58,449.17,305.75,449.29,305.92,449.62"/>
	<path class="st2" d="M149.35,426.37c24.32,0,41.13-16.36,41.13-40.07c0-19.56-14.23-29.81-28.36-38.61
		c-19.11-11.88-26-17.71-26-30.26c0-16.08,13.84-26.17,24.99-26.17c6.28,0,11.94,2.58,15.13,7.23
		c-8.01,9.47-13.62,20.62-13.62,30.04c0,7,3.98,9.53,7.96,9.53c9.69,0,21.3-13.9,21.3-29.2c0-5.55-1.57-10.54-4.48-14.51
		c7.45-5.6,15.86-8.52,24.21-8.52c3.36,0,6,0.62,6.89,0.62c0.39,0,0.5-0.22,0.5-1.01c0-4.48-3.87-7.51-8.69-7.51
		c-8.35,0-17.99,5.16-26.39,12.67c-4.09-3.42-9.53-5.44-16.14-5.44c-21.74,0-39.96,15.52-39.96,38.39
		c0,21.01,13.39,29.76,26.96,38.28c13.28,8.29,25.89,17.04,25.89,32.84c0,15.58-11.66,26.28-26.34,26.28
		c-13.56,0-21.46-8.07-21.8-19.22c-0.5-15.35,10.31-24.88,20.85-24.88c0.39,0,1.01,0.06,1.23,0.06c0.17,0,0.22-0.11,0.22-0.28
		c0-2.41-3.75-5.21-9.36-5.21c-13,0-26.51,9.64-26.51,27.07C118.92,417.06,133.93,426.37,149.35,426.37 M179.61,310.76
		c0,12.44-4.03,22.98-9.02,22.98c-1.91,0-3.64-1.12-3.64-4.71c0-8.52,4.6-17.99,11.54-25.89
		C179.21,305.38,179.61,307.9,179.61,310.76"/>
	<path class="st2" d="M227.86,391.12c0.11,9.98,1.18,11.26,6.33,11.26c3.81,0,7.57-1.4,7.57-2.24c0-0.39-1.06-3.59-1.06-12.89
		c0-19.56,8.24-56.1,17.93-56.1c2.75,0,3.42,2.8,3.42,7.96c0,15.52-3.03,32.67-3.03,46.85c0,12.67,1.18,14.18,6.78,14.18
		c3.81,0,8.74-1.74,8.74-3.03c0-0.67-1.79-1.23-1.79-12.1c0-21.01,10.26-54.47,17.93-54.47c2.97,0,3.14,3.92,3.14,9.47
		c0,9.02-2.3,28.64-2.3,46.29c0,11.82,3.03,14.29,8.63,14.29c3.81,0,7.96-2.02,7.96-3.25c0-0.95-2.91-1.34-2.91-10.76
		c0-23.87,2.35-36.87,2.35-51.78c0-8.91-3.92-12.5-10.09-12.5c-13.06,0-20.29,13.73-23.14,31.44h-0.17
		c0.34-5.49,1.23-10.7,1.29-17.88c0-8.63-3.75-13-11.49-13c-5.49,0-16.87,2.24-22.47,31.1h-0.28c0.06-6.56,0.73-11.71,0.73-20.23
		c0-6.72-1.23-8.52-6.16-8.52c-5.27,0-8.57,1.79-8.57,2.3c0,0.84,1.74,1.18,1.74,18.49C228.98,357.1,228.03,375.31,227.86,391.12"/>
</g>
</svg>
