<?xml version="1.0" encoding="utf-8"?>
<!-- Generator: Adobe Illustrator 25.2.3, SVG Export Plug-In . SVG Version: 6.00 Build 0)  -->
<svg version="1.1" id="Layer_1" xmlns="http://www.w3.org/2000/svg" xmlns:xlink="http://www.w3.org/1999/xlink" x="0px" y="0px"
	 viewBox="0 0 43.79 34.91" style="enable-background:new 0 0 43.79 34.91;" xml:space="preserve">
<style type="text/css">
	.st0{fill:#767671;}
</style>
<g>
	<path class="st0" d="M6.86,4.27l12.29,13.95c0.7,0.79,1.71,1.25,2.76,1.25c1.06,0,2.06-0.45,2.76-1.25l12.09-13.7
		c0.1-0.11,0.22-0.2,0.34-0.27c-0.51-0.22-1.08-0.35-1.67-0.35H8.4c-0.57,0-1.11,0.11-1.6,0.32C6.82,4.24,6.84,4.25,6.86,4.27z"/>
	<path class="st0" d="M38.96,5.85c-0.05,0.14-0.13,0.28-0.24,0.4L26.65,19.96c-1.2,1.36-2.92,2.14-4.73,2.14s-3.53-0.78-4.73-2.14
		L4.89,6.01C4.87,5.98,4.85,5.95,4.83,5.92c-0.38,0.63-0.6,1.36-0.6,2.15v18.88c0,2.31,1.87,4.18,4.18,4.18h27.03
		c2.31,0,4.18-1.87,4.18-4.18V8.07C39.61,7.25,39.37,6.5,38.96,5.85z"/>
</g>
</svg>
