<?xml version="1.0" encoding="utf-8"?>
<!-- Generator: Adobe Illustrator 25.2.3, SVG Export Plug-In . SVG Version: 6.00 Build 0)  -->
<svg version="1.1" id="Layer_1" xmlns="http://www.w3.org/2000/svg" xmlns:xlink="http://www.w3.org/1999/xlink" x="0px" y="0px"
	 viewBox="0 0 37.36 32.09" style="enable-background:new 0 0 37.36 32.09;" xml:space="preserve">
<style type="text/css">
	.st0{fill:#767671;}
</style>
<g>
	<path class="st0" d="M4.12,6.26c-0.6-0.57-0.89-1.28-0.89-2.13S3.53,2.57,4.12,2s1.34-0.85,2.24-0.85S8,1.44,8.6,2
		c0.59,0.57,0.89,1.28,0.89,2.13S9.19,5.69,8.6,6.26C8.01,6.83,7.26,7.12,6.36,7.12C5.46,7.11,4.71,6.83,4.12,6.26z M9.87,9.52
		v20.16H3.78V9.52H9.87z"/>
	<path class="st0" d="M32.88,11.5c1.48,1.52,2.22,3.63,2.22,6.35v11.83h-6.09V18.54c0-1.6-0.4-2.83-1.2-3.69
		c-0.8-0.86-1.89-1.29-3.28-1.29c-1.41,0-2.52,0.43-3.33,1.29s-1.22,2.09-1.22,3.69v11.14h-6.09V9.52h6.09v2.51
		c0.68-0.87,1.55-1.56,2.6-2.06c1.06-0.5,2.21-0.75,3.48-0.75C29.6,9.22,31.4,9.98,32.88,11.5z"/>
</g>
</svg>
